<?xml version="1.0" encoding="utf-8"?>
<!-- Generator: Adobe Illustrator 25.2.0, SVG Export Plug-In . SVG Version: 6.00 Build 0)  -->
<svg version="1.1" id="Layer_1" xmlns="http://www.w3.org/2000/svg" xmlns:xlink="http://www.w3.org/1999/xlink" x="0px" y="0px"
	 viewBox="0 0 64 64" style="enable-background:new 0 0 64 64;" xml:space="preserve">
<style type="text/css">
	.st0{fill:#D9DCE1;}
	.st1{fill:none;stroke:#56AAFF;stroke-width:8;stroke-linecap:square;stroke-miterlimit:10;}
</style>
<path class="st0" d="M62.3,12.4L62.3,12.4L33.4,0.8c-1-0.4-2.1-0.4-3.1,0L1.7,12.2C0.6,12.7,0,13.6,0,14.8v34.4
	c0,1.1,0.7,2.1,1.7,2.5l28.9,11.5l0,0c0.6,0.1,1,0.3,1.5,0.3V27.6c0-1.1,0.7-2.1,1.7-2.5l29.6-11.8C63.2,12.8,62.7,12.5,62.3,12.4z"
	/>
<path class="st0" d="M64,14.9c0-0.6-0.3-1.3-0.6-1.7L33.8,25c-1.1,0.4-1.7,1.4-1.7,2.5v35.9c0.6,0,1-0.1,1.5-0.3l0,0l28.7-11.4
	c1.1-0.4,1.7-1.4,1.7-2.5L64,14.9L64,14.9z"/>
<polyline class="st1" points="50.4,20.2 32.1,27.5 32.1,51 "/>
<line class="st1" x1="12.9" y1="20.5" x2="32.1" y2="27.5"/>
</svg>
