<?xml version="1.0" ?><svg height="66" viewBox="0 0 66 66" width="66" xmlns="http://www.w3.org/2000/svg"><path d="M417,662.003487 C417,659.241043 419.242185,657 422.003487,657 L477.996513,657 C480.758957,657 483,659.242185 483,662.003487 L483,717.996513 C483,720.758957 480.757815,723 477.996513,723 L422.003487,723 C419.241043,723 417,720.757815 417,717.996513 L417,662.003487 Z M435,673 L449,673 L449,659 L435,659 L435,673 Z M435,689 L449,689 L449,675 L435,675 L435,689 Z M435,705 L449,705 L449,691 L435,691 L435,705 Z M435,721 L449,721 L449,707 L435,707 L435,721 Z M419,689 L433,689 L433,675 L419,675 L419,689 Z M419,705 L433,705 L433,691 L419,691 L419,705 Z M451,673 L465,673 L465,659 L451,659 L451,673 Z M451,689 L465,689 L465,675 L451,675 L451,689 Z M451,705 L465,705 L465,691 L451,691 L451,705 Z M451,721 L465,721 L465,707 L451,707 L451,721 Z M467,689 L481,689 L481,675 L467,675 L467,689 Z M467,705 L481,705 L481,691 L467,691 L467,705 Z M467,673 L481,673 L481,662.003487 C481,660.346527 479.654159,659 477.996513,659 L467,659 L467,673 Z M467,707 L467,721 L477.996513,721 C479.654159,721 481,719.653473 481,717.996513 L481,707 L467,707 Z M433,673 L433,659 L422.003487,659 C420.345841,659 419,660.346527 419,662.003487 L419,673 L433,673 Z M433,707 L419,707 L419,717.996513 C419,719.653473 420.345841,721 422.003487,721 L433,721 L433,707 Z" fill="#000000" fill-rule="evenodd" transform="translate(-417 -657)"/></svg>