<?xml version="1.0" ?><svg height="46" viewBox="0 0 66 46" width="66" xmlns="http://www.w3.org/2000/svg"><path d="M548.508018,668.670017 C548.917919,667.167044 550.440863,666 551.997292,666 L588.002708,666 C589.55914,666 591.081068,667.163333 591.491982,668.670017 L601.910361,706.870739 C602.665877,709.640964 600.865165,712 597.996513,712 L542.003487,712 C539.130912,712 537.33272,709.646109 538.089639,706.870739 L548.508018,668.670017 Z M571,696 L582.945291,696 L581.581654,686 L571,686 L571,696 Z M571,684 L581.308927,684 L580.218018,676 L571,676 L571,684 Z M571,674 L579.945291,674 L579.127109,668 L571,668 L571,674 Z M571,710 L584.854382,710 L583.218018,698 L571,698 L571,710 Z M557.054709,696 L569,696 L569,686 L558.418346,686 L557.054709,696 Z M558.691073,684 L569,684 L569,676 L559.781982,676 L558.691073,684 Z M560.054709,674 L569,674 L569,668 L560.872891,668 L560.054709,674 Z M555.145618,710 L569,710 L569,698 L556.781982,698 L555.145618,710 Z M556.399836,686 L545.854705,686 L543.127432,696 L555.0362,696 L556.399836,686 Z M557.763473,676 L548.581978,676 L546.400159,684 L556.672563,684 L557.763473,676 Z M558.0362,674 L558.854382,668 L551.997292,668 C551.344066,668 550.610482,668.562152 550.437545,669.196252 L549.127432,674 L558.0362,674 Z M553.127109,710 L554.763473,698 L542.581978,698 L540.019167,707.396974 C539.609254,708.899988 540.449579,710 542.003487,710 L553.127109,710 Z M583.600164,686 L584.9638,696 L596.872568,696 L594.145295,686 L583.600164,686 Z M582.236527,676 L583.327437,684 L593.599841,684 L591.418022,676 L582.236527,676 Z M581.145618,668 L581.9638,674 L590.872568,674 L589.562455,669.196252 C589.388767,668.559399 588.656935,668 588.002708,668 L581.145618,668 Z M586.872891,710 L597.996513,710 C599.546123,710 600.389442,708.895204 599.980833,707.396974 L597.418022,698 L585.236527,698 L586.872891,710 Z" fill="#000000" fill-rule="evenodd" transform="translate(-537 -666)"/></svg>