<?xml version="1.0" ?><svg height="66" viewBox="0 0 66 66" width="66" xmlns="http://www.w3.org/2000/svg"><path d="M241.929817,177 C242.005873,176.995144 242.081892,176.999168 242.156353,177.011442 C242.378583,177.044581 242.566602,177.147513 242.708506,177.291494 C242.852487,177.433398 242.955419,177.621417 242.988558,177.843647 C243.000832,177.918108 243.004856,177.994127 243,178.070183 L243,226 C243,226.265216 242.894643,226.51957 242.707107,226.707107 L226.707107,242.707107 C226.485893,242.928321 226.209538,243.016839 225.944045,243 L178,243 C177.447715,243 177,242.552285 177,242 L177,194.055955 C176.983161,193.790462 177.071679,193.514107 177.292893,193.292893 L193.292893,177.292893 C193.48043,177.105357 193.734784,177 194,177 L241.929817,177 Z M225.585786,193 L239.585786,179 L195,179 L195,193 L225.585786,193 Z M225,225 L225,195 L195,195 L195,225 L225,225 Z M179,239.585786 L193,225.585786 L193,195 L179,195 L179,239.585786 Z M239.585786,227 L227,227 L227,239.585786 L239.585786,227 Z M227,225 L241,225 L241,180.414214 L227,194.414214 L227,225 Z M193,193 L193,180.414214 L180.414214,193 L193,193 Z M194.414214,227 L180.414214,241 L225,241 L225,227 L194.414214,227 Z" fill="#000000" fill-rule="evenodd" transform="translate(-177 -177)"/></svg>