<?xml version="1.0" ?><!DOCTYPE svg  PUBLIC '-//W3C//DTD SVG 1.1//EN'  'http://www.w3.org/Graphics/SVG/1.1/DTD/svg11.dtd'><svg enable-background="new 0 0 512 512" height="512px" id="Слой_1" version="1.1" viewBox="0 0 512 512" width="512px" xml:space="preserve" xmlns="http://www.w3.org/2000/svg" xmlns:xlink="http://www.w3.org/1999/xlink"><g><g><path clip-rule="evenodd" d="M404.982,101.627c6.036-5.926,13.252-8.887,21.653-8.887     c8.396,0,15.56,2.961,21.485,8.887c6.014,6.03,9.014,13.245,9.001,21.647c0.013,8.391-2.987,15.549-9.001,21.475     c-3.055,3.098-6.434,5.395-10.143,6.892v175.51c3.709,1.466,7.088,3.727,10.143,6.777c6.014,6.033,9.014,13.247,9.001,21.647     c0.013,8.393-2.987,15.552-9.001,21.477c-5.926,6.011-13.09,9.011-21.485,8.999c-5.81,0.009-11.054-1.415-15.724-4.272     l-71.857,54.459c0.686,2.558,1.027,5.254,1.023,8.089c0.014,8.394-2.987,15.552-9.002,21.476     c-5.926,6.013-13.088,9.012-21.484,9.001c-8.4,0.011-15.621-2.988-21.654-9.001c-4.91-4.909-7.777-10.663-8.605-17.259     l-169.068-41.813c-0.966,1.288-2.048,2.521-3.25,3.703c-5.925,6.012-13.088,9.012-21.48,9.001     c-8.405,0.011-15.622-2.989-21.654-9.001c-5.93-5.924-8.89-13.082-8.89-21.476c0-8.4,2.96-15.616,8.89-21.646     c3.09-3.035,6.486-5.294,10.199-6.778V185.023c-3.713-1.518-7.109-3.814-10.199-6.894c-5.93-5.924-8.89-13.082-8.89-21.476     c0-8.4,2.96-15.616,8.89-21.646c6.032-5.924,13.249-8.886,21.654-8.886c5.819,0,11.041,1.425,15.671,4.272l71.853-54.459     c-0.681-2.537-1.024-5.214-1.024-8.033c0-8.4,2.965-15.614,8.89-21.646c6.032-5.923,13.249-8.885,21.654-8.885     c8.396,0,15.555,2.962,21.48,8.885c4.959,4.974,7.866,10.746,8.721,17.319l169.016,41.811     C402.738,104.081,403.802,102.828,404.982,101.627z M410.912,149.477l-71.857,54.457c0.686,2.56,1.027,5.256,1.023,8.089     c0.014,8.394-2.987,15.552-9.002,21.478c-3.054,3.096-6.433,5.394-10.146,6.892v175.509c1.47,0.579,2.872,1.282,4.22,2.107     l71.969-54.515c-0.333-1.215-0.582-2.468-0.738-3.761l-61.773-15.267v-23.411l67.188,16.633c0.943-1.304,2.008-2.557,3.188-3.761     c3.089-3.032,6.49-5.293,10.203-6.777V151.64C413.712,151.037,412.287,150.316,410.912,149.477z M396.381,127.488L227.308,85.677     c-0.966,1.284-2.048,2.519-3.25,3.703c-3.05,3.095-6.433,5.394-10.142,6.892v66.251l-22.793-5.639V96.271     c-1.487-0.607-2.929-1.349-4.332-2.221l-71.8,54.457c0.325,1.239,0.574,2.512,0.744,3.818l169.011,41.812     c0.947-1.307,2.012-2.56,3.191-3.761c6.033-5.924,13.254-8.886,21.654-8.886c5.801,0,11.005,1.425,15.613,4.272l71.914-54.515     C396.791,130.031,396.541,128.779,396.381,127.488z M107.014,178.129c-3.054,3.097-6.433,5.396-10.142,6.894v175.509     c1.474,0.57,2.898,1.273,4.274,2.107l71.857-54.459c-0.646-2.523-0.97-5.183-0.97-7.976c0-8.399,2.965-15.616,8.89-21.646     c3.09-3.032,6.486-5.294,10.199-6.777v-63.231l22.793,5.639v57.593c3.708,1.466,7.092,3.727,10.142,6.777     c4.955,4.969,7.862,10.741,8.721,17.319l51.682,12.816v23.411l-57.211-14.069c-0.939,1.262-2.003,2.477-3.192,3.645     c-5.925,6.013-13.084,9.012-21.48,9.001c-5.801,0.009-11.045-1.415-15.729-4.272l-71.857,54.401     c0.325,1.248,0.574,2.521,0.744,3.816l169.068,41.756c0.921-1.28,1.968-2.515,3.134-3.703c3.09-3.033,6.491-5.294,10.199-6.778     V240.392c-3.708-1.516-7.109-3.814-10.199-6.892c-4.91-4.909-7.777-10.661-8.605-17.261l-169.068-41.813     C109.293,175.717,108.211,176.951,107.014,178.129z" fill="#333333" fill-rule="evenodd"/></g></g></svg>