<?xml version="1.0" encoding="utf-8"?>
<!-- Generator: Adobe Illustrator 25.2.0, SVG Export Plug-In . SVG Version: 6.00 Build 0)  -->
<svg version="1.1" id="Layer_1" xmlns="http://www.w3.org/2000/svg" xmlns:xlink="http://www.w3.org/1999/xlink" x="0px" y="0px"
	 viewBox="0 0 60 60" style="enable-background:new 0 0 60 60;" xml:space="preserve">
<style type="text/css">
	.st0{fill:none;stroke:#000000;stroke-width:2;stroke-linecap:round;}
</style>
<desc></desc>
<g id="Page-1_1_">
	<g id="_x30_84.Spline_1_" transform="translate(1.000000, 1.000000)">
		<path id="Stroke-1155_1_" class="st0" d="M32,9.1"/>
		<path id="Stroke-1156_2_" class="st0" d="M26,8.8"/>
		<polygon id="Stroke-1160_1_" class="st0" points="26,12.6 32,12.6 32,6.6 26,6.6 		"/>
	</g>
</g>
<g id="Page-1_3_">
	<g id="_x30_84.Spline_3_" transform="translate(1.000000, 1.000000)">
		<path id="Stroke-1155_3_" class="st0" d="M58,28.5"/>
		<path id="Stroke-1156_3_" class="st0" d="M52,28.1"/>
		<polygon id="Stroke-1160_3_" class="st0" points="52,32 58,32 58,26 52,26 		"/>
	</g>
</g>
<g>
	<path d="M33,12.3c11,0.9,19.8,7,21.6,14.7h3.1c-1.8-9.3-12-16.7-24.7-17.7V12.3z"/>
	<path d="M54.6,33c-2,8.4-12.3,14.8-24.6,14.8c-13.8,0-25-8-25-17.8c0-9.1,9.6-16.6,22-17.7v-3C13,10.4,2,19.3,2,30
		c0,11.5,12.6,20.8,28,20.8c14.1,0,25.7-7.8,27.7-17.8H54.6z"/>
</g>
<g id="Page-1_2_">
	<g id="_x30_84.Spline_2_" transform="translate(1.000000, 1.000000)">
		<path id="Stroke-1155_2_" class="st0" d="M32,28.5"/>
		<path id="Stroke-1156_1_" class="st0" d="M26,28.2"/>
		<polygon id="Stroke-1160_2_" class="st0" points="26,32 32,32 32,26 26,26 		"/>
	</g>
</g>
</svg>
