<?xml version="1.0" encoding="utf-8"?>
<!-- Generator: Adobe Illustrator 25.2.0, SVG Export Plug-In . SVG Version: 6.00 Build 0)  -->
<svg version="1.1" id="Layer_1" xmlns="http://www.w3.org/2000/svg" xmlns:xlink="http://www.w3.org/1999/xlink" x="0px" y="0px"
	 viewBox="0 0 60 60" style="enable-background:new 0 0 60 60;" xml:space="preserve">
<style type="text/css">
	.st0{fill:none;stroke:#000000;stroke-width:2;stroke-linecap:round;}
</style>
<desc></desc>
<g id="Page-1_1_">
	<g id="_x30_84.Spline_1_" transform="translate(1.000000, 1.000000)">
		<path id="Stroke-1155_1_" class="st0" d="M32,28.5"/>
		<path id="Stroke-1156_2_" class="st0" d="M26,28.2"/>
		<polygon id="Stroke-1160_1_" class="st0" points="26,32 32,32 32,26 26,26 		"/>
	</g>
</g>
<path d="M54.5,32c-1,12.6-11.6,22.6-24.5,22.6c-13.5,0-24.6-11-24.6-24.6c0-13.5,11-24.6,24.6-24.6c12.9,0,23.5,10,24.5,22.6h3
	c-1-14.3-13-25.6-27.5-25.6C14.8,2.4,2.4,14.8,2.4,30c0,15.2,12.4,27.6,27.6,27.6c14.5,0,26.5-11.3,27.5-25.6H54.5z"/>
<g id="Page-1_2_">
	<g id="_x30_84.Spline_2_" transform="translate(1.000000, 1.000000)">
		<path id="Stroke-1155_2_" class="st0" d="M58,28.5"/>
		<path id="Stroke-1156_1_" class="st0" d="M52,28.2"/>
		<polygon id="Stroke-1160_2_" class="st0" points="52,32 58,32 58,26 52,26 		"/>
	</g>
</g>
</svg>
