<?xml version="1.0" encoding="utf-8"?>
<!-- Generator: Adobe Illustrator 25.2.0, SVG Export Plug-In . SVG Version: 6.00 Build 0)  -->
<svg version="1.1" id="Layer_1" xmlns="http://www.w3.org/2000/svg" xmlns:xlink="http://www.w3.org/1999/xlink" x="0px" y="0px"
	 viewBox="0 0 72.1 72.1" style="enable-background:new 0 0 72.1 72.1;" xml:space="preserve">
<style type="text/css">
	.st0{fill:none;stroke:#000000;stroke-width:2;stroke-linecap:round;}
</style>
<desc></desc>
<g id="Page-1_3_">
	<g id="_x30_84.Spline_3_" transform="translate(1.000000, 1.000000)">
		<path id="Stroke-1155_3_" class="st0" d="M63.1,17.6"/>
		<path id="Stroke-1156_3_" class="st0" d="M57.1,17.3"/>
		<polygon id="Stroke-1160_3_" class="st0" points="57.1,21.1 63.1,21.1 63.1,15.1 57.1,15.1 		"/>
	</g>
</g>
<g id="Page-1_1_">
	<g id="_x30_84.Spline_1_" transform="translate(1.000000, 1.000000)">
		<path id="Stroke-1155_1_" class="st0" d="M63.1,17.6"/>
		<path id="Stroke-1156_1_" class="st0" d="M57.1,17.3"/>
		<polygon id="Stroke-1160_1_" class="st0" points="57.1,21.1 63.1,21.1 63.1,15.1 57.1,15.1 		"/>
	</g>
</g>
<g id="Page-1_4_">
	<g id="_x30_84.Spline_4_" transform="translate(1.000000, 1.000000)">
		<path id="Stroke-1155_4_" class="st0" d="M12.5,51.7"/>
		<path id="Stroke-1156_4_" class="st0" d="M6.5,51.4"/>
		<polygon id="Stroke-1160_4_" class="st0" points="6.5,55.2 12.5,55.2 12.5,49.2 6.5,49.2 		"/>
	</g>
</g>
<g id="Page-1_2_">
	<g id="_x30_84.Spline_2_" transform="translate(1.000000, 1.000000)">
		<path id="Stroke-1155_2_" class="st0" d="M12.5,51.7"/>
		<path id="Stroke-1156_2_" class="st0" d="M6.5,51.4"/>
		<polygon id="Stroke-1160_2_" class="st0" points="6.5,55.2 12.5,55.2 12.5,49.2 6.5,49.2 		"/>
	</g>
</g>
<g>
	<polygon points="12,50.2 12,20.4 58.7,20.4 58.7,17.4 9,17.4 9,50.2 	"/>
	<polygon points="60.2,21.9 60.2,51.8 13.5,51.8 13.5,54.8 63.2,54.8 63.2,21.9 	"/>
</g>
</svg>
