<?xml version="1.0" ?><svg height="60px" version="1.1" viewBox="0 0 60 60" width="60px" xmlns="http://www.w3.org/2000/svg" xmlns:xlink="http://www.w3.org/1999/xlink"><title/><desc/><defs/><g fill="none" fill-rule="evenodd" id="Page-1" stroke="none" stroke-linecap="round" stroke-width="1"><g id="084.Spline" stroke="#000000" stroke-width="2" transform="translate(1.000000, 1.000000)"><path d="M55,6 C53.009,24.25 51.006,37.707 44,40.475" id="Stroke-1155"/><path d="M20.0012,18.1771 C25.7092,22.3721 31.3282,36.5331 37.9992,40.1521" id="Stroke-1156"/><path d="M14.0001,17.5652 C9.1231,19.6882 5.4361,28.2982 3.0001,52.0002" id="Stroke-1157"/><polygon id="Stroke-1158" points="0 58 6 58 6 52 0 52"/><polygon id="Stroke-1159" points="14 20 20 20 20 14 14 14"/><polygon id="Stroke-1160" points="38 44 44 44 44 38 38 38"/><polygon id="Stroke-1161" points="52 6 58 6 58 0 52 0"/></g></g></svg>