<?xml version="1.0" ?><svg height="60px" version="1.1" viewBox="0 0 54 60" width="54px" xmlns="http://www.w3.org/2000/svg" xmlns:xlink="http://www.w3.org/1999/xlink"><title/><desc/><defs/><g fill="none" fill-rule="evenodd" id="Page-1" stroke="none" stroke-width="1"><g fill="#000000" fill-rule="nonzero" id="3D-GUI---Outline---038---Cut-corner"><path d="M0,46 C0.00584370209,46.0470274 0.0152303908,46.0935463 0.02808,46.13916 C0.034501716,46.2112182 0.0488518144,46.2823483 0.07087,46.35126 C0.0963208437,46.4088225 0.127352533,46.4637518 0.16352,46.51526 C0.193835747,46.5717507 0.229742196,46.6250576 0.2707,46.67438 C0.321728576,46.7239854 0.377987655,46.767909 0.43849,46.80538 C0.474225772,46.8379988 0.512425887,46.8678106 0.55275,46.89455 L26.55275,59.89455 C26.56148,59.89888 26.57167,59.89699 26.58046,59.90108 C26.8446305,60.0329966 27.1554595,60.0329966 27.41963,59.90108 C27.42842,59.89699 27.43863,59.89888 27.44728,59.89455 L53.44728,46.89455 C53.487516,46.8678154 53.5256503,46.8380454 53.56135,46.8055 C53.6219244,46.7680013 53.6782536,46.7240444 53.72935,46.6744 C53.8044049,46.5720756 53.8712436,46.4639714 53.92924,46.3511 C53.9511799,46.2823419 53.965486,46.2113781 53.9719,46.13949 C53.9847865,46.0937722 53.9941802,46.0471413 54,46 L54,14 C54,13.98932 53.99426,13.98053 53.994,13.97 C53.9763468,13.8622439 53.9547456,13.7551719 53.92924,13.649 C53.9207,13.62636 53.91282,13.60469 53.90275,13.5829 C53.89823,13.57313 53.89945,13.56251 53.89457,13.55281 C53.8728863,13.5213129 53.8493026,13.4911669 53.82395,13.46254 C53.7964732,13.4142517 53.7648188,13.3684633 53.72935,13.3257 C53.71122,13.30611 53.69328,13.28847 53.67369,13.27034 C53.6316062,13.235536 53.5866222,13.2043958 53.53923,13.17726 C53.5101203,13.1514542 53.47942,13.1275004 53.44731,13.10554 L27.44731,0.10554 C27.1657136,-0.0350850791 26.8343764,-0.0350850791 26.55278,0.10554 L0.55278,13.10554 C0.520669984,13.1275004 0.489969658,13.1514542 0.46086,13.17726 C0.413467835,13.2043958 0.368483841,13.235536 0.3264,13.27034 C0.30681,13.28847 0.28886,13.30611 0.27074,13.3257 C0.235271177,13.3684633 0.203616839,13.4142517 0.17614,13.46254 C0.150787449,13.4911669 0.127203703,13.5213129 0.10552,13.55281 C0.10064,13.56258 0.10186,13.57326 0.09734,13.58308 C0.08721,13.60487 0.0794,13.62629 0.07091,13.64881 C0.0535570518,13.7039361 0.0411184974,13.7604902 0.03374,13.81781 C0.0205443427,13.8677402 0.01126946,13.918625 0.006,13.97 C0.00574,13.98053 0,13.98938 0,14 L0,46 Z M50.76367,14 L27,25.88184 L19.23633,22 L43,10.11816 L50.76367,14 Z M52,25.38184 L28,37.38184 L28,27.61816 L52,15.61816 L52,25.38184 Z M26,35.32727 L19.57574,24.40607 L26,27.61816 L26,35.32727 Z M28,39.61816 L52,27.61816 L52,45.38184 L28,57.38184 L28,39.61816 Z M16.28784,22.76208 L26,39.27277 L26,57.38184 L2,45.38184 L2,15.61816 L16.28784,22.76208 Z M27,2.11816 L40.76367,9 L17,20.88184 L3.23633,14 L27,2.11816 Z" id="Shape"/></g></g></svg>