<?xml version="1.0" ?><svg style="enable-background:new 0 0 28 31.943;" version="1.1" viewBox="0 0 28 31.943" xml:space="preserve" xmlns="http://www.w3.org/2000/svg" xmlns:xlink="http://www.w3.org/1999/xlink"><g id="Layer_96"><g><g><path d="M14,12C7.213,12,0,9.897,0,6s7.213-6,14-6s14,2.103,14,6S20.787,12,14,12z M14,2C6.565,2,2,4.33,2,6s4.565,4,12,4     s12-2.33,12-4S21.435,2,14,2z"/></g><g><path d="M14,31.943c-6.787,0-14-2.103-14-6V6h2v19.943c0,1.67,4.565,4,12,4s12-2.33,12-4V6h2v19.943     C28,29.841,20.787,31.943,14,31.943z"/></g></g></g><g id="Layer_1"/></svg>