<?xml version="1.0" ?><svg class="appbits-icons" height="24" viewBox="0 0 24 24" width="24" xmlns="http://www.w3.org/2000/svg" xmlns:xlink="http://www.w3.org/1999/xlink"><defs><path class="appbits-icons-fill" d="M6.5,6.5 L0.5,6.5 L0.5,19.5 L13.5,19.5 L13.5,13.5 L6.5,13.5 L6.5,6.5 Z" id="graphic-combine-subtract-a"/></defs><g fill="none" fill-rule="evenodd"><rect height="24" width="24"/><g transform="translate(2 2)"><path class="appbits-icons-fill" d="M6.5,1 L7.5,1 L7.5,0 L6.5,0 L6.5,1 Z M8.5,1 L9.5,1 L9.5,0 L8.5,0 L8.5,1 Z M10.5,1 L11.5,1 L11.5,0 L10.5,0 L10.5,1 Z M12.5,1 L13.5,1 L13.5,0 L12.5,0 L12.5,1 Z M14.5,1 L15.5,1 L15.5,0 L14.5,0 L14.5,1 Z M16.5,1 L17.5,1 L17.5,0 L16.5,0 L16.5,1 Z M19.5,1 L19.5,0 L18.5,0 L18.5,1 L19.5,1 Z M19,1.5 L19,2.5 L20,2.5 L20,1.5 L19,1.5 Z M19,3.5 L19,4.5 L20,4.5 L20,3.5 L19,3.5 Z M19,5.5 L19,6.5 L20,6.5 L20,5.5 L19,5.5 Z M19,7.5 L19,8.5 L20,8.5 L20,7.5 L19,7.5 Z M19,9.5 L19,10.5 L20,10.5 L20,9.5 L19,9.5 Z M19,11.5 L19,12.5 L20,12.5 L20,11.5 L19,11.5 Z M19.5,13 L18.5,13 L18.5,14 L19.5,14 L19.5,13 Z M17.5,13 L16.5,13 L16.5,14 L17.5,14 L17.5,13 Z M15.5,13 L14.5,13 L14.5,14 L15.5,14 L15.5,13 Z M13.5,13 L12.5,13 L12.5,14 L13.5,14 L13.5,13 Z M11.5,13 L10.5,13 L10.5,14 L11.5,14 L11.5,13 Z M9.5,13 L8.5,13 L8.5,14 L9.5,14 L9.5,13 Z M7,13 L7,12.5 L6,12.5 L6,13.5 C6,13.7761424 6.22385763,14 6.5,14 L7.5,14 L7.5,13 L7,13 Z M7,12.5 L7,11.5 L6,11.5 L6,12.5 L7,12.5 Z M7,10.5 L7,9.5 L6,9.5 L6,10.5 L7,10.5 Z M7,8.5 L7,7.5 L6,7.5 L6,8.5 L7,8.5 Z M7,6.5 L7,5.5 L6,5.5 L6,6.5 L7,6.5 Z M7,4.5 L7,3.5 L6,3.5 L6,4.5 L7,4.5 Z M7,2.5 L7,1.5 L6,1.5 L6,2.5 L7,2.5 Z" fill="#000" fill-rule="nonzero"/><mask fill="#fff" id="graphic-combine-subtract-b"><use xlink:href="#graphic-combine-subtract-a"/></mask><g mask="url(#graphic-combine-subtract-b)"><path class="appbits-icons-fill" d="M0.5,3.1767767 L0.323223305,3 L3,0.323223305 L3.1767767,0.5 L0.5,3.1767767 Z M0.5,1.6767767 L0.323223305,1.5 L1.5,0.323223305 L1.6767767,0.5 L0.5,1.6767767 Z M0.5,4.6767767 L0.323223305,4.5 L4.5,0.323223305 L4.6767767,0.5 L0.5,4.6767767 Z M0.5,6.1767767 L0.323223305,6 L6,0.323223305 L6.1767767,0.5 L0.5,6.1767767 Z M0.5,7.6767767 L0.323223305,7.5 L7.57106781,0.252155493 L7.74784451,0.428932188 L0.5,7.6767767 Z M0.5,9.1767767 L0.323223305,9 L9,0.323223305 L9.1767767,0.5 L0.5,9.1767767 Z M0.5,10.6767767 L0.323223305,10.5 L10.5,0.323223305 L10.6767767,0.5 L0.5,10.6767767 Z M0.5,12.1767767 L0.323223305,12 L12,0.323223305 L12.1767767,0.5 L0.5,12.1767767 Z M0.5,13.6767767 L0.323223305,13.5 L13.5384048,0.284818494 L13.7151815,0.46159519 L0.5,13.6767767 Z M0.5,15.1767767 L0.323223305,15 L15,0.323223305 L15.1767767,0.5 L0.5,15.1767767 Z M0.5,16.6767767 L0.323223305,16.5 L16.5,0.323223305 L16.6767767,0.5 L0.5,16.6767767 Z M0.5,18.1767767 L0.323223305,18 L18,0.323223305 L18.1767767,0.5 L0.5,18.1767767 Z M0.5,19.6767767 L0.323223305,19.5 L19.6049732,0.21825013 L19.7817499,0.395026825 L0.5,19.6767767 Z M0.5,21.1767767 L0.323223305,21 L21,0.323223305 L21.1767767,0.5 L0.5,21.1767767 Z M0.5,22.6767767 L0.323223305,22.5 L22.590722,0.23250127 L22.7674987,0.409277966 L0.5,22.6767767 Z M1,23.6767767 L0.823223305,23.5 L23.5,0.823223305 L23.6767767,1 L1,23.6767767 Z M2.5,23.6767767 L2.3232233,23.5 L23.5950231,2.22820019 L23.7717998,2.40497689 L2.5,23.6767767 Z M3.99957033,23.6767762 L3.82322383,23.4995703 L23.5954528,3.82322383 L23.7717993,4.00042967 L3.99957033,23.6767762 Z M5.5,23.6767767 L5.3232233,23.5 L23.6107703,5.21245303 L23.787547,5.38922972 L5.5,23.6767767 Z M7,23.6767767 L6.8232233,23.5 L23.5,6.8232233 L23.6767767,7 L7,23.6767767 Z M8.5,23.6767767 L8.3232233,23.5 L23.5332964,8.28992693 L23.7100731,8.46670362 L8.5,23.6767767 Z M10,23.6767767 L9.8232233,23.5 L23.5,9.8232233 L23.6767767,10 L10,23.6767767 Z M11.5,23.6767767 L11.3232233,23.5 L23.6655251,11.1576982 L23.8423018,11.3344749 L11.5,23.6767767 Z M13,23.6767767 L12.8232233,23.5 L23.5,12.8232233 L23.6767767,13 L13,23.6767767 Z M14.5,23.6767767 L14.3232233,23.5 L23.5553851,14.2678382 L23.7321618,14.4446149 L14.5,23.6767767 Z M16,23.6767767 L15.8232233,23.5 L23.5,15.8232233 L23.6767767,16 L16,23.6767767 Z M17.5,23.6767767 L17.3232233,23.5 L23.5,17.3232233 L23.6767767,17.5 L17.5,23.6767767 Z M19,23.6767767 L18.8232233,23.5 L23.5,18.8232233 L23.6767767,19 L19,23.6767767 Z M20.5,23.6767767 L20.3232233,23.5 L23.5,20.3232233 L23.6767767,20.5 L20.5,23.6767767 Z M22,23.6767767 L21.8232233,23.5 L23.5,21.8232233 L23.6767767,22 L22,23.6767767 Z" fill="#000" fill-rule="nonzero" transform="translate(-2 -2)"/></g></g><path class="appbits-icons-fill" d="M15.5,15 C15.7761424,15 16,15.2238576 16,15.5 L16,21.5 C16,21.7761424 15.7761424,22 15.5,22 L2.5,22 C2.22385763,22 2,21.7761424 2,21.5 L2,8.5 C2,8.22385763 2.22385763,8 2.5,8 L8.5,8 C8.77614237,8 9,8.22385763 9,8.5 L9,15 L15.5,15 Z M3,9 L3,21 L15,21 L15,16 L8.5,16 C8.22385763,16 8,15.7761424 8,15.5 L8,9 L3,9 Z" fill="#020302" fill-rule="nonzero"/></g></svg>