<?xml version="1.0" ?><svg height="60px" version="1.1" viewBox="0 0 60 60" width="60px" xmlns="http://www.w3.org/2000/svg" xmlns:xlink="http://www.w3.org/1999/xlink"><title/><desc/><defs/><g fill="none" fill-rule="evenodd" id="Page-1" stroke="none" stroke-width="1"><g fill="#000000" fill-rule="nonzero" id="3D-GUI---Outline---053---Extrude-Wall"><path d="M59.96631,38.81775 C59.9589112,38.7604284 59.9464526,38.7038744 59.92908,38.64875 C59.92047,38.62611 59.91272,38.60456 59.90265,38.58275 C59.89813,38.57298 59.89935,38.56243 59.89453,38.55275 C59.8728859,38.5212588 59.8493212,38.4911317 59.82397,38.46254 C59.7963775,38.4142289 59.7646629,38.3683918 59.72918,38.32554 C59.71105,38.30589 59.69318,38.28825 59.67352,38.27012 C59.6321677,38.2361618 59.5880472,38.2057223 59.54162,38.17912 C59.5117628,38.1526032 59.4802455,38.1280166 59.44726,38.10551 L51,33.88184 L51,26 C50.9986773,25.9010448 50.9825279,25.8028469 50.95209,25.70868 C50.94495,25.68518 50.93402,25.66449 50.92509,25.6416 C50.8904986,25.5521294 50.8430863,25.4681616 50.78434,25.39233 C50.77,25.37365 50.75901,25.35412 50.7432,25.33648 C50.6801532,25.2639653 50.6069446,25.2009557 50.52585,25.14941 C50.509,25.13903 50.49002,25.1347 50.47275,25.12541 C50.46292,25.1201 50.45731,25.11052 50.44724,25.10551 L44,21.88184 L44,13 L48,13 C48.3881086,12.9999745 48.7411608,12.7754159 48.9057167,12.4239197 C49.0702726,12.0724234 49.0166173,11.6574613 48.76807,11.35938 L43.76807,5.35938 C43.571854,5.14208716 43.2927795,5.01807476 43.000005,5.01807476 C42.7072305,5.01807476 42.428156,5.14208716 42.23194,5.35938 L37.23194,11.35938 C36.9833938,11.6574599 36.9297378,12.0724197 37.0942912,12.4239151 C37.2588446,12.7754106 37.6118932,12.9999706 38,13 L42,13 L42,20.88184 L31,15.38184 L31,8 L35,8 C35.3881086,7.99997447 35.7411608,7.77541591 35.9057167,7.42391966 C36.0702726,7.07242341 36.0166173,6.65746133 35.76807,6.35938 L30.76807,0.35938 C30.571854,0.142087161 30.2927795,0.0180747574 30.000005,0.0180747574 C29.7072305,0.0180747574 29.428156,0.142087161 29.23194,0.35938 L24.23194,6.35938 C23.9833938,6.65745994 23.9297378,7.0724197 24.0942912,7.42391513 C24.2588446,7.77541057 24.6118932,7.99997059 25,8 L29,8 L29,15.38184 L18,20.88184 L18,13 L22,13 C22.3881086,12.9999745 22.7411608,12.7754159 22.9057167,12.4239197 C23.0702726,12.0724234 23.0166173,11.6574613 22.76807,11.35938 L17.76807,5.35938 C17.571854,5.14208716 17.2927795,5.01807476 17.000005,5.01807476 C16.7072305,5.01807476 16.428156,5.14208716 16.23194,5.35938 L11.23194,11.35938 C10.9833938,11.6574599 10.9297378,12.0724197 11.0942912,12.4239151 C11.2588446,12.7754106 11.6118932,12.9999706 12,13 L16,13 L16,21.88184 L9.55273,25.10547 C9.54273,25.11047 9.53711,25.12 9.52734,25.12531 C9.51007,25.13465 9.49096,25.13898 9.47412,25.14942 C9.41933073,25.1856226 9.36825853,25.2271584 9.32165,25.27342 C9.31065,25.28373 9.29748,25.29082 9.28692,25.30162 C9.27606,25.31273 9.26708,25.325 9.25677,25.33653 C9.24096,25.35417 9.22998,25.3737 9.21563,25.39238 C9.17053584,25.449861 9.13193157,25.512149 9.10052,25.57811 C9.08952,25.60155 9.0802,25.62437 9.07092,25.64879 C9.06317,25.66918 9.05426,25.68785 9.04792,25.70873 C9.01748364,25.8028804 9.00133087,25.9010611 9,26 L9,33.88184 L0.55273,38.10547 C0.52012669,38.1277836 0.488958542,38.1521249 0.45941,38.17835 C0.41238617,38.2052331 0.367732149,38.2360641 0.32593,38.27051 C0.30652,38.28845 0.28876,38.30603 0.27082,38.32551 C0.235440314,38.3682424 0.203809906,38.4139449 0.17628,38.46211 C0.150833361,38.4908344 0.127188195,38.5211055 0.10548,38.55275 C0.10066,38.56245 0.10188,38.57301 0.09736,38.58275 C0.08729,38.60454 0.07954,38.62608 0.07093,38.64875 C0.0535573796,38.7038744 0.0410987525,38.7604284 0.0337,38.81775 C0.0205147695,38.867701 0.0112532419,38.9186059 0.006,38.97 C0.00574,38.98053 0,38.98932 0,39 L0,44.5 C0.00585159812,44.5469735 0.0152382283,44.5934386 0.02808,44.639 C0.0345281084,44.7111183 0.0488980409,44.7823074 0.07093,44.85128 C0.0963804505,44.9088616 0.127412055,44.9638109 0.16358,45.01534 C0.193916691,45.0718321 0.229843176,45.1251389 0.27082,45.17446 C0.321806816,45.2240183 0.378022777,45.2678953 0.43848,45.30532 C0.474215772,45.3379388 0.512415887,45.3677506 0.55274,45.39449 L29.55274,59.89449 C29.56147,59.89888 29.57174,59.89699 29.58057,59.90108 C29.8446536,60.0329172 30.1553564,60.0329172 30.41944,59.90108 C30.42829,59.89699 30.43854,59.89888 30.44727,59.89449 L59.44727,45.39449 C59.4875941,45.3677506 59.5257942,45.3379388 59.56153,45.30532 C59.6219872,45.2678953 59.6782032,45.2240183 59.72919,45.17446 C59.8042253,45.0721644 59.8710631,44.9641017 59.92908,44.85128 C59.951112,44.7823074 59.9654819,44.7111183 59.97193,44.639 C59.9847684,44.5934384 59.9941517,44.5469732 60,44.5 L60,39 C60,38.98932 59.99426,38.98053 59.994,38.97 C59.98875,38.9186062 59.9794919,38.8677012 59.96631,38.81775 Z M40.13525,11 L43,7.5625 L45.86475,11 L40.13525,11 Z M14.13525,11 L17,7.5625 L19.86475,11 L14.13525,11 Z M2,40.61816 L29,54.11816 L29,57.38183 L2,43.88183 L2,40.61816 Z M31,54.11816 L58,40.61816 L58,43.88183 L31,57.38183 L31,54.11816 Z M49,27.61816 L49,38.38184 L45,40.38184 L45,29.61816 L49,27.61816 Z M27.13525,6 L30,2.5625 L32.86475,6 L27.13525,6 Z M17,26 C17.2652376,26.000069 17.5196316,25.8947343 17.707183,25.707183 C17.8947343,25.5196316 18.000069,25.2652376 18,25 L18,23.11816 L29,17.61816 L29,18 C29,18.5522847 29.4477153,19 30,19 C30.5522847,19 31,18.5522847 31,18 L31,17.61816 L42,23.11816 L42,25 C42,25.5522847 42.4477153,26 43,26 C43.5522847,26 44,25.5522847 44,25 L44,24.11816 L47.76367,26 L44,27.88184 L30.44727,21.10547 C30.43854,21.10114 30.42835,21.10303 30.41956,21.09894 C30.1554107,20.9670229 29.8445993,20.9670229 29.58045,21.09894 C29.57166,21.10303 29.56145,21.10114 29.55274,21.10547 L16,27.88184 L12.23633,26 L16,24.11816 L16,25 C15.999931,25.2652376 16.1052657,25.5196316 16.292817,25.707183 C16.4803684,25.8947343 16.7347624,26.000069 17,26 Z M31,34.38184 L31,23.61816 L43,29.61816 L43,40.38184 L31,34.38184 Z M17,29.61816 L29,23.61816 L29,34.38184 L17,40.38184 L17,29.61816 Z M11,27.61816 L15,29.61816 L15,40.38184 L11,38.38184 L11,27.61816 Z M9.06989,39.34616 C9.08140021,39.376154 9.09441676,39.4055481 9.10889,39.43423 C9.14957627,39.5178892 9.20182448,39.5954115 9.2641,39.66452 C9.2796,39.68167 9.29102,39.70108 9.30762,39.71713 C9.37982494,39.7883821 9.46248368,39.8481944 9.55274,39.8945 L15.55274,42.8945 C15.57174,42.90396 15.59345,42.9005 15.61286,42.90866 C15.7052972,42.9460278 15.802899,42.96906 15.90229,42.97696 C15.93562,42.98032 15.96662,42.99996 16.00001,42.99996 C16.01301,42.99996 16.02558,42.99514 16.03858,42.99465 C16.06415,42.99365 16.08851,42.9872 16.11414,42.98421 C16.2100696,42.972992 16.3038268,42.9477214 16.3924,42.90921 C16.41034,42.90152 16.42957,42.90321 16.44727,42.89444 L30,36.11816 L43.55273,42.89453 C43.5675,42.90185 43.58373,42.89886 43.59873,42.90539 C43.7237497,42.9641578 43.859629,42.9962716 43.99773,42.99969 L43.999,43 L43.99949,42.99994 L44,43 L44.00134,42.99969 C44.1406543,42.9965203 44.2777579,42.9641887 44.40381,42.90478 C44.41773,42.89862 44.43353,42.90136 44.44727,42.89453 L50.44727,39.89453 C50.7859996,39.7250339 50.999956,39.3787699 51,39 L51,36.11816 L56.76367,39 L30,52.38184 L3.23633,39 L9,36.11816 L9,39 C9.0022826,39.1186613 9.02595861,39.2359369 9.06989,39.34619 L9.06989,39.34616 Z" id="Shape"/></g></g></svg>