<?xml version="1.0" ?><svg height="60px" version="1.1" viewBox="0 0 60 60" width="60px" xmlns="http://www.w3.org/2000/svg" xmlns:xlink="http://www.w3.org/1999/xlink"><title/><desc/><defs/><g fill="none" fill-rule="evenodd" id="Page-1" stroke="none" stroke-width="1"><g fill="#000000" fill-rule="nonzero" id="3D-GUI---Outline---025---Cone"><path d="M59.67383,47.65381 L39.95392,3.61381 C39.488,1.13647 34.58289,0 30,0 C25.35956,0 20.39258,1.16638 20.03473,3.709 L0.58344,47.15118 C0.208790733,47.8168469 0.00811958483,48.5662682 0,49.33008 C0,54.50244 10.51416,60 30,60 C49.48535,60 60,54.50244 60,49.33008 C59.9903354,48.829702 59.8961972,48.3345532 59.72156,47.86554 C59.7137432,47.7933796 59.6977299,47.7223448 59.67383,47.65381 Z M21.19031,6.02179 C22.99622,7.36713 26.58563,8 30,8 C33.42938,8 37.03479,7.36127 38.83282,6.00372 L44.02691,17.60406 C40.79889,15.88715 35.3833,15 30,15 C24.64105,15 19.24823,15.87842 16.01508,17.58008 L21.19031,6.02179 Z M15,21.3335 C15,19.56641 20.84326,17 30,17 C39.15674,17 45,19.56641 45,21.3335 C45,23.1001 39.15674,25.6665 30,25.6665 C20.84326,25.6665 15,23.1001 15,21.3335 Z M46.45605,23.0293 L49.16784,29.08582 C46.466845,27.7477993 43.5751335,26.8356282 40.59527,26.38166 C43.37115,25.607 45.51031,24.48358 46.45605,23.0293 L46.45605,23.0293 Z M19.4054,26.3819 C16.4393337,26.8352228 13.5606301,27.7420228 10.87024,29.0705 L13.563,23.05664 C14.51794,24.49768 16.64679,25.61212 19.4054,26.3819 Z M14.62811,40.12054 C11.0298828,40.7554445 7.55462951,41.9551248 4.331,43.67517 L7.7533,36.03192 C8.87915,37.64362 11.24841,39.05231 14.62811,40.12054 Z M19.83593,39.32568 C12.39111,37.99512 9,35.54443 9,33.83008 C9.00446721,33.5873461 9.05846756,33.3480825 9.15869,33.12696 C10.25891,30.73035 16.72461,28.05378 26.95404,27.57026 C27.96094,27.63326 28.98096,27.66651 30.00004,27.66651 C31.01912,27.66651 32.0391,27.63325 33.04604,27.57026 C43.27547,28.05378 49.74117,30.73036 50.83211,33.10694 C50.9375048,33.3337788 50.9947094,33.5800106 51.00011,33.83008 C51.00011,35.54444 47.60949,37.99508 40.16417,39.32569 C33.4331014,40.4301904 26.5670075,40.430187 19.83594,39.32568 L19.83593,39.32568 Z M52.26525,36.00348 L55.70934,43.69556 C52.4745281,41.9616849 48.9837276,40.7551785 45.36864,40.12156 C48.76978,39.04688 51.14722,37.62738 52.26526,36.00348 L52.26525,36.00348 Z M30,2 C35.24951,2 38,3.48584 38,4 C38,4.51416 35.24951,6 30,6 C24.75049,6 22,4.51416 22,4 C22,3.48584 24.75049,2 30,2 Z M30,58 C13.499,58 2,53.43066 2,49.33008 C2.01117625,48.9814449 2.09595789,48.639115 2.24878,48.32556 L2.38898,48.01256 C4.04511,45.0703 10.80768,42.45056 19.65424,41.32042 C23.0725135,41.8963247 26.5335684,42.1805151 30,42.16992 C33.4663532,42.180494 36.927328,41.8962868 40.34552,41.32037 C49.5224,42.49566 56.34961,45.21911 57.7583,48.2716 L57.76251,48.281 C57.9171881,48.6092046 57.9982438,48.9672571 58,49.33008 C58,53.43066 46.501,58 30,58 Z" id="Shape"/></g></g></svg>