<?xml version="1.0" ?><svg height="60px" version="1.1" viewBox="0 0 60 60" width="60px" xmlns="http://www.w3.org/2000/svg" xmlns:xlink="http://www.w3.org/1999/xlink"><title/><desc/><defs/><g fill="none" fill-rule="evenodd" id="Page-1" stroke="none" stroke-width="1"><g fill="#000000" fill-rule="nonzero" id="3D-GUI---Outline---017---Sphere"><path d="M30,0 C13.4314575,-1.01453063e-15 2.02906125e-15,13.4314575 0,30 C-2.02906125e-15,46.5685425 13.4314575,60 30,60 C46.5685425,60 60,46.5685425 60,30 C59.98123,13.4392385 46.5607615,0.0187700372 30,0 Z M42.88,54.84924 C43.254272,54.4668658 43.2584855,53.8567648 42.8895305,53.4692577 C42.5205754,53.0817506 41.9110013,53.0560519 41.51074,53.41113 C41.00974,53.85058 40.49121,54.26413 39.97074,54.63965 C39.7555822,54.7948758 39.6109272,55.0292397 39.5686174,55.2911515 C39.5263077,55.5530633 39.5898116,55.8210535 39.74515,56.03613 C39.7957985,56.0909078 39.8528013,56.1394474 39.91495,56.18072 C39.2082833,56.4492733 38.48825,56.6887333 37.75485,56.8991 C37.4798106,56.5403923 36.9963369,56.4142114 36.58108,56.59276 C36.35202,56.69376 36.11892,56.7852 35.88589,56.87609 C36.1341167,56.59173 36.37789,56.2902567 36.61721,55.97167 C36.9462833,55.5288384 36.85468,54.903181 36.4124692,54.5732741 C35.9702583,54.2433671 35.3444295,54.3337915 35.01369,54.77538 C34.6411958,55.2796002 34.2297811,55.7538705 33.78322,56.19384 C33.5933097,56.3789903 33.4847585,56.632019 33.4814614,56.8972277 C33.4781642,57.1624365 33.5803914,57.4180856 33.76564,57.6079 C33.816051,57.6504823 33.8707946,57.6876528 33.92897,57.7188 C33.06422,57.8408 32.18806,57.92626 31.30006,57.96703 C31.1994846,57.9351765 31.094379,57.9199761 30.9889,57.92203 C30.9537508,57.4030373 30.5225116,57.0000162 30.00233,57.0000162 C29.4821484,57.0000162 29.0509092,57.4030373 29.01576,57.92203 C28.9084925,57.9194068 28.8015323,57.9345859 28.69923,57.96695 C27.81147,57.92612 26.93562,57.84079 26.07106,57.71878 C26.1292354,57.6876328 26.183979,57.6504623 26.23439,57.60788 C26.4196386,57.4180656 26.5218658,57.1624165 26.5185686,56.8972077 C26.5152715,56.631999 26.4067203,56.3789703 26.21681,56.19382 C25.7702489,55.7538505 25.3588342,55.2795802 24.98634,54.77536 C24.6556005,54.3337715 24.0297717,54.2433471 23.5875608,54.5732541 C23.14535,54.903161 23.0537467,55.5288184 23.38282,55.97165 C23.6213467,56.2906167 23.86512,56.59209 24.11414,56.87607 C23.88114,56.78519 23.64801,56.69376 23.41895,56.59274 C23.0037703,56.4146155 22.5206565,56.540798 22.24561,56.8992 C21.5128833,56.6876533 20.79271,56.44815 20.08509,56.18069 C20.1472268,56.1394017 20.2042278,56.0908636 20.25489,56.0361 C20.4102284,55.8210235 20.4737323,55.5530333 20.4314226,55.2911215 C20.3891128,55.0292097 20.2444578,54.7948458 20.0293,54.63962 C19.50879,54.26413 18.99024,53.85056 18.4893,53.4111 C18.089076,53.0555212 17.4790748,53.0810151 17.1099162,53.4687489 C16.7407576,53.8564827 16.745217,54.4670001 17.12,54.8493 C7.83474114,50.0441408 2.00307914,40.4631181 2.00000942,30.0081873 C1.99693971,19.5532565 7.82297447,9.96881094 17.10541,5.1582 C16.7212604,5.53655184 16.708296,6.1520145 17.0761722,6.54620746 C17.4440484,6.94040042 18.0589392,6.96992408 18.46289,6.61279 C18.96289,6.17236 19.47949,5.75879 19.99902,5.38279 C20.446283,5.05916183 20.5468078,4.43437856 20.22363,3.98679 C20.1737821,3.92836819 20.1171265,3.8761172 20.05487,3.83115 C20.7543967,3.56436333 21.4669833,3.32592 22.19263,3.11582 C22.4694157,3.48357505 22.9638707,3.61081266 23.38379,3.42234 C23.62479,3.31565 23.86979,3.21842 24.11505,3.12284 C23.86139,3.41337 23.61169,3.72037 23.36914,4.04734 C23.1561418,4.33412959 23.1123238,4.71276729 23.2541918,5.04062392 C23.3960598,5.36848056 23.7020606,5.59574691 24.0569268,5.63681394 C24.411793,5.67788096 24.7616118,5.52650961 24.97461,5.23972 C25.3456395,4.73501607 25.7557551,4.26024809 26.20117,3.8198 C26.3908226,3.63439152 26.4990238,3.38121733 26.5019552,3.11600828 C26.5048866,2.85079924 26.4023081,2.59529524 26.2168,2.40574 C26.1625841,2.35898578 26.1032457,2.31852442 26.03992,2.28513 C26.9018,2.16251 27.77492,2.0759 28.65998,2.03397 C28.7705618,2.07563254 28.887701,2.09719164 29.00587,2.09763 L29.01948,2.09635 C29.0622566,2.60714311 29.4892737,2.99996855 30.0018549,3.00006506 C30.514436,3.00016157 30.9416011,2.60749697 30.98457,2.09672 L30.99415,2.09764 C31.1123044,2.09720327 31.2294295,2.07565102 31.34,2.034 C32.22513,2.07593 33.09842,2.16254 33.96048,2.28522 C33.8970506,2.31863565 33.8375745,2.35906904 33.78317,2.40576 C33.5976619,2.59531524 33.4950834,2.85081924 33.4980148,3.11602828 C33.5009462,3.38123733 33.6091474,3.63441152 33.7988,3.81982 C34.2442149,4.26026809 34.6543305,4.73503607 35.02536,5.23974 C35.3546267,5.68307828 35.9809467,5.77555162 36.424285,5.44628498 C36.8676233,5.11701834 36.9600966,4.4906983 36.63083,4.04736 C36.38828,3.72036 36.13858,3.41336 35.88492,3.12286 C36.13022,3.21844 36.37522,3.31567 36.61618,3.42236 C37.0360993,3.61083266 37.5305543,3.48359505 37.80734,3.11584 C38.5322533,3.32671333 39.2447967,3.56513667 39.94497,3.83111 C39.88275,3.8761008 39.8261346,3.92837204 39.77633,3.98681 C39.4531522,4.43439856 39.553677,5.05918183 40.00094,5.38281 C40.52047,5.75881 41.03707,6.17236 41.53707,6.61281 C41.9407029,6.9726115 42.5577858,6.94424826 42.9267111,6.54893736 C43.2956364,6.15362646 43.2813728,5.53605671 42.89459,5.1582 C52.177003,9.96880438 58.0030225,19.5532296 57.9999528,30.0081373 C57.996883,40.463045 52.1652363,50.0440474 42.88,54.8492 L42.88,54.84924 Z" id="Shape"/><path d="M22.24121,49.6333 C22.0384166,49.1198492 21.4577858,48.8680116 20.944335,49.070805 C20.4308842,49.2735984 20.1790466,49.8542292 20.38184,50.36768 C20.64844,51.04297 20.92872,51.69288 21.21684,52.29883 C21.3698152,52.621869 21.6835919,52.8386834 22.0398559,52.8675201 C22.39612,52.8963568 22.7406822,52.7328298 22.9436205,52.4385991 C23.1465588,52.1443685 23.1770054,51.7641879 23.02348,51.44141 C22.75488,50.87549 22.49219,50.26709 22.24121,49.6333 Z" id="Shape"/><path d="M20.99121,45.86719 C20.81738,45.24073 20.65234,44.59668 20.50098,43.93653 C20.4209096,43.5883354 20.161162,43.3093073 19.8195814,43.2045529 C19.4780008,43.0997986 19.1064816,43.1852327 18.8449714,43.4286729 C18.5834612,43.6721132 18.4716896,44.0365754 18.55176,44.38477 C18.71094,45.0742233 18.8815133,45.74675 19.06348,46.40235 C19.2122438,46.9334714 19.7628468,47.2439578 20.2943094,47.0964176 C20.8257721,46.9488775 21.1375257,46.398991 20.99121,45.86719 L20.99121,45.86719 Z" id="Shape"/><path d="M19.29492,16.835 C19.553344,16.8949653 19.8250053,16.8497799 20.0501043,16.7093903 C20.2752033,16.5690007 20.4352881,16.3449149 20.49512,16.08646 C20.6474667,15.42484 20.8105533,14.7801467 20.98438,14.15238 C21.1296617,13.6206628 20.817252,13.0716557 20.2859231,12.9249603 C19.7545942,12.7782648 19.2047581,13.0892131 19.05665,13.62015 C18.8759833,14.2739567 18.7057367,14.94567 18.54591,15.63529 C18.4216942,16.1733738 18.7569381,16.7103433 19.29492,16.835 Z" id="Shape"/><path d="M18.17578,35.08252 C18.4406151,35.0671289 18.6884864,34.9471528 18.8648553,34.7489899 C19.0412241,34.5508269 19.1316404,34.2907128 19.11621,34.02588 C19.0781233,33.3637733 19.0491533,32.6948267 19.0293,32.01904 C19.0128502,31.4667553 18.5517997,31.0323753 17.999515,31.0488251 C17.4472303,31.0652749 17.0128502,31.5263253 17.0293,32.07861 C17.0507867,32.7734367 17.08106,33.4612633 17.12012,34.14209 C17.1505618,34.6705754 17.5878286,35.083643 18.11719,35.08398 C18.1367167,35.0839933 18.1562467,35.0835067 18.17578,35.08252 Z" id="Shape"/><path d="M18.91016,41.14844 C19.1723266,41.107892 19.407626,40.9648019 19.5642399,40.7506816 C19.7208539,40.5365612 19.7859383,40.2689709 19.74516,40.00684 C19.6445733,39.35596 19.5534267,38.6941767 19.47172,38.02149 C19.4051117,37.4729801 18.9064599,37.0823217 18.35795,37.14893 C17.8094401,37.2155383 17.4187817,37.7141901 17.48539,38.2627 C17.57035,38.9570333 17.66475,39.6406267 17.76859,40.31348 C17.8440328,40.8004679 18.2630932,41.1598419 18.75589,41.16016 C18.8075336,41.1601046 18.8591007,41.1561871 18.91016,41.14844 Z" id="Shape"/><path d="M18.001,28.97461 L18.0303,28.9751 C18.5712891,28.9746919 19.0138952,28.5441899 19.0293,28.00342 C19.0478533,27.3281267 19.0765,26.6595067 19.11524,25.99756 C19.1371761,25.6403048 18.966449,25.2985801 18.6676078,25.1015867 C18.3687665,24.9045933 17.9874129,24.8823913 17.6677307,25.043375 C17.3480484,25.2043587 17.1388195,25.5239628 17.11915,25.88135 C17.07911,26.5625033 17.0491633,27.25098 17.02931,27.94678 C17.0140841,28.4988265 17.4489688,28.958837 18.001,28.97461 L18.001,28.97461 Z" id="Shape"/><path d="M20.93652,10.95068 C21.183321,11.0481486 21.4587615,11.0434129 21.7020661,10.9375178 C21.9453706,10.8316227 22.1365425,10.6332715 22.2334,10.38623 C22.47949,9.76023 22.74219,9.15185 23.01367,8.57764 C23.2473004,8.07862395 23.0333195,7.48464142 22.5351253,7.2492636 C22.0369311,7.01388578 21.4422023,7.22578373 21.20508,7.72315 C20.91508,8.33692 20.63477,8.98682 20.37208,9.65381 C20.1699827,10.1677937 20.422643,10.7483116 20.93652,10.95068 L20.93652,10.95068 Z" id="Shape"/><path d="M18.35742,22.87354 C18.6208355,22.9056235 18.886188,22.8315367 19.0948852,22.6676388 C19.3035823,22.5037408 19.4384579,22.263513 19.46973,22 C19.54981,21.3281267 19.64063,20.66667 19.74219,20.01563 C19.8268663,19.469818 19.453042,18.9587063 18.90723,18.87403 C18.361418,18.7893537 17.8503063,19.163178 17.76563,19.70899 C17.6611367,20.3818433 17.56706,21.0660867 17.4834,21.76172 C17.4517937,22.0250717 17.5261348,22.2901894 17.6900586,22.498713 C17.8539824,22.7072366 18.0940516,22.8420727 18.35742,22.87354 Z" id="Shape"/><path d="M39.05566,49.07031 C38.5420755,48.8679201 37.9616315,49.1199037 37.75879,49.63331 C37.50779,50.2671 37.24512,50.8755 36.97656,51.44142 C36.8230346,51.7641979 36.8534812,52.1443785 37.0564195,52.4386091 C37.2593578,52.7328398 37.60392,52.8963668 37.9601841,52.8675301 C38.3164481,52.8386934 38.6302248,52.621879 38.7832,52.29884 C39.07129,51.69284 39.35156,51.04298 39.6182,50.36769 C39.7157044,50.1210539 39.7112102,49.845781 39.6057066,49.6024593 C39.5002031,49.3591376 39.3023373,49.16771 39.05566,49.07031 Z" id="Shape"/><path d="M40.25781,20.01563 C40.3583967,20.6660233 40.4492167,21.3274833 40.53027,22.00001 C40.5960692,22.5485199 41.0940651,22.9398342 41.642575,22.874035 C42.1910849,22.8082358 42.5823992,22.3102399 42.5166,21.76173 C42.4326,21.0663967 42.3385233,20.3821533 42.23437,19.709 C42.1496937,19.1631881 41.638582,18.7893638 41.09277,18.8740401 C40.5469581,18.9587164 40.1731337,19.469828 40.25781,20.01564 L40.25781,20.01563 Z" id="Shape"/><path d="M39.01563,14.15234 C39.1884833,14.77978 39.35157,15.4244733 39.50489,16.08642 C39.6306566,16.6233566 40.1672285,16.9572455 40.7044934,16.8328892 C41.2417584,16.7085329 41.5770551,16.1728396 41.45411,15.63525 C41.2939567,14.9462833 41.12371,14.27457 40.94337,13.62011 C40.7952619,13.0891731 40.2454258,12.7782248 39.7140969,12.9249203 C39.182768,13.0716157 38.8703583,13.6206228 39.01564,14.15234 L39.01563,14.15234 Z" id="Shape"/><path d="M40.69824,43.186 C40.1599513,43.0627333 39.6234674,43.398473 39.49902,43.93649 C39.34765,44.59665 39.18261,45.24069 39.00879,45.86715 C38.9122518,46.2118141 39.007224,46.5817931 39.2578353,46.8373452 C39.5084467,47.0928974 39.8765014,47.1950736 40.2229843,47.1052817 C40.5694671,47.0154898 40.8415704,46.7474151 40.93652,46.40231 C41.11816,45.7475233 41.2887333,45.0749967 41.44824,44.38473 C41.5721436,43.8466047 41.2363612,43.3099215 40.69824,43.186 L40.69824,43.186 Z" id="Shape"/><path d="M41.8252,24.94092 C41.5603649,24.9563111 41.3124936,25.0762872 41.1361247,25.2744501 C40.9597559,25.4726131 40.8693396,25.7327272 40.88477,25.99756 C40.9228567,26.65918 40.9515033,27.3278 40.97071,28.00342 C40.9861148,28.5441899 41.4287209,28.9746919 41.96971,28.9751 L41.99901,28.97461 C42.5510372,28.9588316 42.9859159,28.4988227 42.97069,27.94678 C42.9501833,27.25098 42.9202367,26.5625033 42.88085,25.88135 C42.8453794,25.3319219 42.3750603,24.9129363 41.8252,24.94092 L41.8252,24.94092 Z" id="Shape"/><path d="M42.001,31.04932 C41.4498112,31.0354815 40.9902553,31.4680334 40.97073,32.01905 C40.9511967,32.6943433 40.9222267,33.36329 40.88382,34.02589 C40.8683896,34.2907228 40.9588059,34.5508369 41.1351747,34.7489999 C41.3115436,34.9471628 41.5594149,35.0671389 41.82425,35.08253 C41.8437833,35.0835033 41.8633133,35.08399 41.88284,35.08399 C42.4122014,35.083653 42.8494682,34.6705854 42.87991,34.1421 C42.91995,33.4614333 42.9502233,32.7736067 42.97073,32.07862 C42.9866436,31.5268069 42.5527815,31.066293 42.001,31.04932 Z" id="Shape"/><path d="M41.6416,37.14941 C41.3782651,37.1170802 41.1128883,37.1908592 40.9040272,37.3544672 C40.6951662,37.5180751 40.5599877,37.7580646 40.52832,38.02148 C40.4472667,38.6943333 40.35612,39.3561167 40.25488,40.00683 C40.2141017,40.2689609 40.2791861,40.5365512 40.4358001,40.7506716 C40.592414,40.9647919 40.8277134,41.107882 41.08988,41.14843 C41.1409492,41.1561785 41.1925264,41.1600961 41.24418,41.16015 C41.7369768,41.1598319 42.1560372,40.8004579 42.23148,40.31347 C42.3359733,39.64111 42.4303733,38.9575167 42.51468,38.26269 C42.5465749,37.9992747 42.4725005,37.73398 42.3087584,37.5251895 C42.1450164,37.3163991 41.9050252,37.1812231 41.6416,37.14941 L41.6416,37.14941 Z" id="Shape"/><path d="M37.7666,10.38623 C37.9688522,10.9002221 38.5494829,11.1529372 39.063475,10.950685 C39.5774671,10.7484328 39.8301822,10.1678021 39.62793,9.65381 C39.36523,8.98681 39.08493,8.33692 38.79493,7.72315 C38.5578077,7.22578373 37.9630789,7.01388578 37.4648847,7.2492636 C36.9666905,7.48464142 36.7527096,8.07862395 36.98634,8.57764 C37.25781,9.15186 37.52051,9.76025 37.7666,10.38623 Z" id="Shape"/><path d="M13.71582,11.49756 C14.0451148,11.4981917 14.3535176,11.3363159 14.54004,11.06494 C14.91895,10.51562 15.31836,9.97994 15.72949,9.47314 C16.0759207,9.04374837 16.0092318,8.41493031 15.5804426,8.06775419 C15.1516534,7.72057807 14.5227205,7.78617456 14.1748,8.21436 C13.73242,8.76124 13.3008,9.33836 12.89355,9.93018 C12.6825748,10.2359008 12.658517,10.6333957 12.8310805,10.9623297 C13.003644,11.2912637 13.3443692,11.4973882 13.71582,11.49756 L13.71582,11.49756 Z" id="Shape"/><path d="M10.37012,16.84961 C10.6143175,16.9530846 10.8896561,16.9551184 11.1353555,16.8552622 C11.3810549,16.7554061 11.5769113,16.5618712 11.67969,16.31738 C11.9423567,15.6962867 12.2213267,15.0904933 12.5166,14.5 C12.6777495,14.1802468 12.6556618,13.7987388 12.4586879,13.4997195 C12.261714,13.2007002 11.9199114,13.029799 11.5625116,13.0516314 C11.2051119,13.0734639 10.8866528,13.2846985 10.72754,13.60547 C10.41406,14.2334 10.11426,14.88428 9.83789,15.53906 C9.62303907,16.0479302 9.86130461,16.6346294 10.37012,16.84961 Z" id="Shape"/><path d="M8.66992,22.80029 C8.74138579,22.8163908 8.81443322,22.8244177 8.88769,22.82422 C9.35604044,22.8234619 9.76128782,22.4981308 9.86328,22.04102 C10.0087867,21.3823533 10.1725233,20.73408 10.35449,20.0962 C10.505504,19.564949 10.197261,19.011864 9.66601,18.86085 C9.13475901,18.709836 8.58167398,19.018079 8.43066,19.54933 C8.23925333,20.2241367 8.06575,20.9101733 7.91015,21.60744 C7.79074337,22.1466085 8.13082671,22.6805443 8.66992,22.80029 Z" id="Shape"/><path d="M14.56055,48.96484 C14.3577959,48.6693479 14.0123748,48.5050011 13.6551927,48.5340831 C13.2980106,48.5631651 12.9837253,48.7812256 12.8314432,49.105625 C12.6791611,49.4300244 12.7121851,49.8111216 12.918,50.10449 C13.32718,50.6958 13.75882,51.27149 14.2012,51.8164 C14.4260411,52.0943956 14.7822241,52.2311577 15.1353389,52.1750774 C15.4884538,52.1189972 15.7847398,51.8786126 15.91239,51.5446358 C16.0400402,51.210659 15.9796201,50.8339368 15.75393,50.55663 C15.34375,50.05078 14.94238,49.51514 14.56055,48.96484 Z" id="Shape"/><path d="M11.69531,43.71826 C11.5562765,43.3892541 11.2522817,43.1594136 10.8978376,43.1153172 C10.5433934,43.0712208 10.1923483,43.2195677 9.97693755,43.5044772 C9.76152684,43.7893867 9.71447652,44.1675741 9.85351,44.49658 C10.12792,45.14697 10.42871,45.79785 10.74609,46.43066 C10.9942115,46.9236038 11.5947857,47.1223215 12.0879592,46.8746571 C12.5811328,46.6269927 12.7804072,46.0266029 12.5332,45.5332 C12.23535,44.93945 11.95313,44.3291 11.69531,43.71826 Z" id="Shape"/><path d="M8.002,28.95459 C8.01958,28.9555633 8.03715667,28.95605 8.05473,28.95605 C8.58634956,28.9554258 9.0246662,28.5391787 9.05273,28.0083 C9.08788333,27.3339867 9.14094333,26.6663433 9.21191,26.00537 C9.26971958,25.4571673 8.87296648,24.9655814 8.32491418,24.9063626 C7.77686188,24.8471438 7.28425762,25.2426318 7.22363,25.79053 C7.14843667,26.4877967 7.09212,27.1922233 7.05468,27.90381 C7.02626326,28.4555158 7.45030971,28.9258738 8.002,28.95459 L8.002,28.95459 Z" id="Shape"/><path d="M10.36523,39.93994 C10.18261,39.3027333 10.0182233,38.6549467 9.87207,37.99658 C9.75086086,37.4588712 9.21752043,37.1205321 8.67941978,37.2399897 C8.14131913,37.3594473 7.80124517,37.8916832 7.91895,38.43017 C8.07422333,39.1274367 8.24837667,39.81396 8.44141,40.48974 C8.59454972,41.0193496 9.14728618,41.3252535 9.67737019,41.1737639 C10.2074542,41.0222743 10.515078,40.4704932 10.36524,39.93994 L10.36523,39.93994 Z" id="Shape"/><path d="M8.33008,35.13574 C8.59377586,35.1073287 8.83537165,34.9752874 9.00167956,34.7686854 C9.16798746,34.5620834 9.24537315,34.2978584 9.2168,34.03418 C9.14551333,33.3735133 9.09180333,32.7055433 9.05567,32.03027 C9.02268157,31.4813879 8.5528995,31.0620114 8.00380576,31.0912662 C7.45471201,31.1205209 7.03215024,31.58744 7.05767,32.13672 C7.09575667,32.8486333 7.15272333,33.5527333 7.22857,34.24902 C7.28329498,34.7564185 7.71138904,35.1411583 8.22173,35.1416 C8.25792498,35.1415676 8.29409265,35.1396115 8.33008,35.13574 L8.33008,35.13574 Z" id="Shape"/><path d="M50.78809,26.00537 C50.8593767,26.6655233 50.9124367,27.3331667 50.94727,28.0083 C50.9753338,28.5391787 51.4136504,28.9554258 51.94527,28.95605 C51.96285,28.95605 51.9804267,28.9555633 51.998,28.95459 C52.5496704,28.9258472 52.9736872,28.4554973 52.94527,27.90381 C52.9081633,27.1923833 52.8518467,26.4879567 52.77632,25.79053 C52.7387914,25.4346503 52.5139443,25.1259557 52.1867304,24.9810772 C51.8595165,24.8361986 51.4798253,24.8772255 51.1911118,25.0886569 C50.9023984,25.3000884 50.748682,25.649688 50.78804,26.00537 L50.78809,26.00537 Z" id="Shape"/><path d="M51.99707,31.085 C51.4456316,31.0562009 50.9748297,31.4789624 50.94434,32.03031 C50.9082067,32.7051167 50.8544967,33.3730867 50.78321,34.03422 C50.7546369,34.2978984 50.8320225,34.5621234 50.9983304,34.7687254 C51.1646383,34.9753274 51.4062341,35.1073687 51.66993,35.13578 C51.7059339,35.1396533 51.7421183,35.1416094 51.77833,35.14164 C52.2885463,35.1408737 52.7164555,34.7563 52.77149,34.24906 C52.8466833,33.55228 52.90365,32.84818 52.94239,32.13676 C52.9714488,31.5853995 52.5483957,31.1147119 51.99707,31.085 Z" id="Shape"/><path d="M49.61426,43.186 C49.3700542,43.0826057 49.0947473,43.0806123 48.8490699,43.1804595 C48.6033925,43.2803067 48.4075307,43.4737906 48.30469,43.71823 C48.04688,44.32907 47.76469,44.93942 47.4668,45.53317 C47.306089,45.852455 47.3280418,46.2332457 47.5243799,46.5319467 C47.720718,46.8306477 48.0615745,47.0018208 48.4184134,46.980917 C48.7752523,46.9600132 49.0937912,46.7502124 49.25391,46.43063 C49.57129,45.79782 49.87207,45.14694 50.14649,44.49655 C50.3613409,43.9876798 50.1230754,43.4009806 49.61426,43.186 Z" id="Shape"/><path d="M51.32129,37.2373 C50.7823094,37.1187142 50.2488635,37.4581213 50.12793,37.99658 C49.9824233,38.65478 49.8180367,39.3025667 49.63477,39.93994 C49.5365577,40.2835991 49.6291457,40.6535489 49.8776571,40.9104329 C50.1261685,41.1673168 50.4928484,41.2721081 50.8395721,41.1853329 C51.1862958,41.0985577 51.4603877,40.8333991 51.5586,40.48974 C51.75098,39.8144467 51.9251333,39.1279233 52.08106,38.43017 C52.2004792,37.8909948 51.8603929,37.3570454 51.32129,37.2373 Z" id="Shape"/><path d="M45.8252,8.21436 C45.6003388,7.93664138 45.2443974,7.7999808 44.8914554,7.85585698 C44.5385135,7.91173316 44.2421912,8.15165718 44.1141104,8.48525198 C43.9860296,8.81884678 44.0456488,9.19543138 44.27051,9.47315 C44.68164,9.97999 45.08106,10.51563 45.45996,11.06495 C45.6621575,11.3603402 46.0068461,11.5250953 46.3637011,11.4969224 C46.7205562,11.4687496 47.0351217,11.2519479 47.1884626,10.9284888 C47.3418035,10.6050297 47.3105199,10.2242729 47.10644,9.93018 C46.69922,9.33838 46.26758,8.76123 45.8252,8.21436 Z" id="Shape"/><path d="M49.64551,20.09619 C49.82715,20.7338833 49.9908867,21.3821567 50.13672,22.04101 C50.2384391,22.4982908 50.6438526,22.8237553 51.11231,22.82421 C51.1855668,22.8244077 51.2586142,22.8163808 51.33008,22.80028 C51.8691829,22.6805346 52.2092692,22.1465852 52.08985,21.60741 C51.9345767,20.91063 51.7610733,20.2245933 51.56934,19.5493 C51.4716493,19.2056409 51.1980394,18.9402041 50.8515765,18.8529772 C50.5051136,18.7657502 50.1384337,18.869985 49.8896615,19.1264172 C49.6408893,19.3828494 49.5478193,19.7525209 49.64551,20.09618 L49.64551,20.09619 Z" id="Shape"/><path d="M47.93066,13.1582 C47.6933935,13.2767998 47.5129686,13.4848087 47.4290881,13.7364541 C47.3452075,13.9880994 47.3647446,14.2627613 47.4834,14.5 C47.77832,15.0903333 48.05729,15.6961267 48.32031,16.31738 C48.5352371,16.825979 49.121771,17.0640471 49.63037,16.84912 C50.138969,16.6341929 50.3770371,16.047659 50.16211,15.53906 C49.88574,14.88427 49.58594,14.2334 49.27246,13.60547 C49.1539806,13.3680887 48.9459768,13.1875577 48.6942857,13.10366 C48.4425946,13.0197623 48.1678728,13.0393836 47.93066,13.1582 L47.93066,13.1582 Z" id="Shape"/><path d="M45.43945,48.96484 C45.05761,49.51513 44.65625,50.05078 44.24609,50.55664 C44.0203999,50.8339468 43.9599798,51.210669 44.08763,51.5446458 C44.2152802,51.8786226 44.5115662,52.1190072 44.8646811,52.1750874 C45.2177959,52.2311677 45.5739789,52.0944056 45.79882,51.81641 C46.2412,51.27149 46.67282,50.6958 47.08202,50.1045 C47.2862585,49.8110939 47.3182616,49.4309535 47.1659524,49.1075305 C47.0136432,48.7841075 46.7002107,48.5666426 46.3439332,48.5371996 C45.9876558,48.5077565 45.6427762,48.6708179 45.43944,48.96485 L45.43945,48.96484 Z" id="Shape"/><path d="M30,16.44873 C29.7347624,16.448661 29.4803684,16.5539957 29.292817,16.741547 C29.1052657,16.9290984 28.999931,17.1834924 29,17.44873 L29,19.37939 C29,19.9316747 29.4477153,20.37939 30,20.37939 C30.5522847,20.37939 31,19.9316747 31,19.37939 L31,17.44873 C31.000069,17.1834924 30.8947343,16.9290984 30.707183,16.741547 C30.5196316,16.5539957 30.2652376,16.448661 30,16.44873 Z" id="Shape"/><path d="M30,10.65527 C29.7347624,10.655201 29.4803684,10.7605357 29.292817,10.948087 C29.1052657,11.1356384 28.999931,11.3900324 29,11.65527 L29,13.58642 C29,14.1387047 29.4477153,14.58642 30,14.58642 C30.5522847,14.58642 31,14.1387047 31,13.58642 L31,11.65527 C31.000069,11.3900324 30.8947343,11.1356384 30.707183,10.948087 C30.5196316,10.7605357 30.2652376,10.655201 30,10.65527 L30,10.65527 Z" id="Shape"/><path d="M30,51.207 C29.7347624,51.206931 29.4803684,51.3122657 29.292817,51.499817 C29.1052657,51.6873684 28.999931,51.9417624 29,52.207 L29,54.13815 C29,54.6904347 29.4477153,55.13815 30,55.13815 C30.5522847,55.13815 31,54.6904347 31,54.13815 L31,52.207 C31.000069,51.9417624 30.8947343,51.6873684 30.707183,51.499817 C30.5196316,51.3122657 30.2652376,51.206931 30,51.207 Z" id="Shape"/><path d="M30,22.2417 C29.7347624,22.241631 29.4803684,22.3469657 29.292817,22.534517 C29.1052657,22.7220684 28.999931,22.9764624 29,23.2417 L29,25.17285 C29,25.7251347 29.4477153,26.17285 30,26.17285 C30.5522847,26.17285 31,25.7251347 31,25.17285 L31,23.2417 C31.000069,22.9764624 30.8947343,22.7220684 30.707183,22.534517 C30.5196316,22.3469657 30.2652376,22.241631 30,22.2417 L30,22.2417 Z" id="Shape"/><path d="M30,33.82764 C29.7347624,33.827571 29.4803684,33.9329057 29.292817,34.120457 C29.1052657,34.3080084 28.999931,34.5624024 29,34.82764 L29,36.75879 C29,37.3110747 29.4477153,37.75879 30,37.75879 C30.5522847,37.75879 31,37.3110747 31,36.75879 L31,34.82764 C31.000069,34.5624024 30.8947343,34.3080084 30.707183,34.120457 C30.5196316,33.9329057 30.2652376,33.827571 30,33.82764 Z" id="Shape"/><path d="M30,28.03467 C29.7347624,28.034601 29.4803684,28.1399357 29.292817,28.327487 C29.1052657,28.5150384 28.999931,28.7694324 29,29.03467 L29,30.96582 C29,31.5181047 29.4477153,31.96582 30,31.96582 C30.5522847,31.96582 31,31.5181047 31,30.96582 L31,29.03467 C31.000069,28.7694324 30.8947343,28.5150384 30.707183,28.327487 C30.5196316,28.1399357 30.2652376,28.034601 30,28.03467 L30,28.03467 Z" id="Shape"/><path d="M30,4.8623 C29.7347624,4.86223101 29.4803684,4.9675657 29.292817,5.15511703 C29.1052657,5.34266837 28.999931,5.59706237 29,5.8623 L29,7.79346 C29,8.34574475 29.4477153,8.79346 30,8.79346 C30.5522847,8.79346 31,8.34574475 31,7.79346 L31,5.8623 C31.000069,5.59706237 30.8947343,5.34266837 30.707183,5.15511703 C30.5196316,4.9675657 30.2652376,4.86223101 30,4.8623 Z" id="Shape"/><path d="M30,45.41406 C29.7347624,45.413991 29.4803684,45.5193257 29.292817,45.706877 C29.1052657,45.8944284 28.999931,46.1488224 29,46.41406 L29,48.34521 C29,48.8974947 29.4477153,49.34521 30,49.34521 C30.5522847,49.34521 31,48.8974947 31,48.34521 L31,46.41406 C31.000069,46.1488224 30.8947343,45.8944284 30.707183,45.706877 C30.5196316,45.5193257 30.2652376,45.413991 30,45.41406 Z" id="Shape"/><path d="M30,39.62109 C29.7347624,39.621021 29.4803684,39.7263557 29.292817,39.913907 C29.1052657,40.1014584 28.999931,40.3558524 29,40.62109 L29,42.55175 C29,43.1040347 29.4477153,43.55175 30,43.55175 C30.5522847,43.55175 31,43.1040347 31,42.55175 L31,40.62109 C31.000069,40.3558524 30.8947343,40.1014584 30.707183,39.913907 C30.5196316,39.7263557 30.2652376,39.621021 30,39.62109 Z" id="Shape"/></g></g></svg>