<?xml version="1.0" ?><svg height="60px" version="1.1" viewBox="0 0 60 60" width="60px" xmlns="http://www.w3.org/2000/svg" xmlns:xlink="http://www.w3.org/1999/xlink"><title/><desc/><defs/><g fill="none" fill-rule="evenodd" id="Page-1" stroke="none" stroke-width="1"><g fill="#000000" fill-rule="nonzero" id="3D-GUI---Outline---022---Mirror"><path d="M0.06537,56.27679 C0.0697029879,56.3500704 0.0823576686,56.4226201 0.10309,56.49304 C0.10663,56.50304 0.10449,56.51343 0.1084,56.52344 C0.34424,57.12844 0.896,58.54492 10.24512,59.45557 C13.98779,59.81152 18.39844,60 23,60 C23.5522847,60 24,59.5522847 24,59 L24,49.41406 L25.293,50.70706 C25.6841917,51.0933426 26.313858,51.091348 26.7025947,50.7025949 C27.0913314,50.3138417 27.0932992,49.6841753 26.707,49.293 L25.41406,48 L29,48 L29,59 C29,59.5522847 29.4477153,60 30,60 C30.5522847,60 31,59.5522847 31,59 L31,48 L34.58594,48 L33.29294,49.293 C33.037697,49.5450613 32.9370407,49.9145398 33.029166,50.2612339 C33.1212913,50.607928 33.3920793,50.8787045 33.7387773,50.9708151 C34.0854753,51.0629256 34.4549495,50.9622537 34.707,50.707 L36,49.41406 L36,59 C36,59.5522847 36.4477153,60 37,60 C41.60156,60 46.01221,59.81152 49.75732,59.45508 C59.104,58.54492 59.65576,57.12842 59.8916,56.52344 C59.89551,56.51344 59.89337,56.50305 59.89691,56.49304 C59.9176423,56.4226201 59.930297,56.3500704 59.93463,56.27679 C59.9678152,56.1591909 59.9599571,56.0337961 59.91235,55.92126 C59.9015096,55.8589604 59.8847091,55.7978463 59.86218,55.73876 C59.8337025,55.6890639 59.8010303,55.6418923 59.76452,55.59776 C59.7264106,55.5355294 59.6813844,55.4778091 59.6303,55.4257 C59.62243,55.4185 59.6195,55.40837 59.6113,55.40135 C59.2003601,55.0510371 58.8074489,54.6801108 58.43408,54.29 C55.1325026,50.7180918 52.7738949,46.3791583 51.57178,41.666 C50.5101458,37.8688833 49.9811632,33.9426904 50,30 C49.9818476,25.9688724 50.5341996,21.9554554 51.64063,18.0791 C52.8643755,13.4591217 55.2002309,9.20885082 58.44434,5.69922 C58.8145858,5.31296663 59.2040807,4.9456365 59.61134,4.59863 C59.61952,4.59163 59.62245,4.58148 59.63034,4.57428 C59.6814244,4.52217092 59.7264507,4.46445067 59.76456,4.40222 C59.8010703,4.35808768 59.8337425,4.31091607 59.86222,4.26122 C59.8847491,4.20213368 59.9015496,4.1410196 59.91239,4.07872 C59.9323432,4.01807953 59.9464082,3.95565788 59.95439,3.89232 C59.9526412,3.83548544 59.9460473,3.77890364 59.93468,3.72319 C59.930347,3.6499096 59.9176923,3.5773599 59.89696,3.50694 C59.89342,3.49694 59.89556,3.48655 59.89165,3.47654 C59.65581,2.87154 59.10405,1.45506 49.75493,0.54441 C46.01221,0.18848 41.60156,0 37,0 C36.4477153,-3.38176876e-17 36,0.44771525 36,1 L36,10.58594 L34.707,9.293 C34.3155191,8.90854701 33.6873575,8.91139172 33.2993746,9.2993746 C32.9113917,9.68735748 32.908547,10.3155191 33.293,10.707 L34.58594,12 L31,12 L31,1 C31,0.44771525 30.5522847,3.38176876e-17 30,0 C29.4477153,-3.38176876e-17 29,0.44771525 29,1 L29,12 L25.41406,12 L26.70706,10.707 C27.0933426,10.3158083 27.091348,9.68614199 26.7025949,9.29740532 C26.3138417,8.90866864 25.6841753,8.90670079 25.293,9.293 L24,10.58594 L24,1 C24,0.44771525 23.5522847,3.38176876e-17 23,0 C18.39844,0 13.98779,0.18848 10.24268,0.54492 C0.896,1.45508 0.34424,2.87158 0.1084,3.47656 C0.10449,3.48656 0.10663,3.49695 0.10309,3.50696 C0.0823576686,3.5773799 0.0697029879,3.6499296 0.06537,3.72321 C0.0540026938,3.77892364 0.0474087885,3.83550544 0.04566,3.89234 C0.0536418241,3.95567788 0.0677067889,4.01809953 0.08766,4.07874 C0.0985003805,4.1410396 0.11530089,4.20215368 0.13783,4.26124 C0.166307475,4.31093607 0.198979672,4.35810768 0.23549,4.40224 C0.273599324,4.46447067 0.318625552,4.52219092 0.36971,4.5743 C0.37758,4.5815 0.38051,4.59163 0.38871,4.59865 C0.799646524,4.94896314 1.19255439,5.31988945 1.56592,5.71 C4.80504419,9.21727065 7.13727981,13.4634888 8.35938,18.07861 C9.46577403,21.9551402 10.0181215,25.9687141 10,30 C10.0187688,33.9438793 9.48945797,37.8712396 8.42725,41.66943 C7.22334833,46.3860281 4.86146497,50.7276398 1.55566,54.30078 C1.18541421,54.6870334 0.79591925,55.0543635 0.38866,55.40137 C0.38048,55.40837 0.37755,55.41852 0.36966,55.42572 C0.318575617,55.4778291 0.273549395,55.5355494 0.23544,55.59778 C0.198929672,55.6419123 0.166257475,55.6890839 0.13778,55.73878 C0.11525089,55.7978663 0.0984503805,55.8589804 0.08761,55.92128 C0.0676567889,55.9819205 0.0535918241,56.0443421 0.04561,56.10768 C0.0473763944,56.1645093 0.0539870229,56.2210844 0.06537,56.27679 Z M17.3078,20.00946 C18.8438733,20.1358667 20.40794,20.2110833 22,20.23511 L22,29 L17.981,29 C17.9428209,25.9921117 17.7179886,22.9894927 17.3078,20.00946 Z M22,31 L22,42.98157 C20.2903438,42.9499274 18.5838075,42.8224272 16.88843,42.59967 C17.5678227,38.7693826 17.9318369,34.8898141 17.97681,31 L22,31 Z M22,18.23517 C20.3017,18.21076 18.62738,18.1275 16.99353,17.98071 C16.4155756,14.4968956 15.5196819,11.0733528 14.31708,7.753 C16.7359,7.89594 19.30808,7.97608 22,7.992 L22,18.23517 Z M12.13312,7.60717 C13.3890529,10.8990141 14.3234617,14.3046784 14.92328,17.77654 C13.3014039,17.5855497 11.6907275,17.309166 10.09796,16.94854 C9.02168861,13.2884644 7.32336436,9.84098701 5.07739,6.75714 C7.41284316,7.16349845 9.76798028,7.4472339 12.13312,7.60718 L12.13312,7.60717 Z M15.26477,19.8269 C15.7029668,22.865746 15.9422193,25.9299678 15.981,29 L11.96649,29 C11.9054385,25.6717498 11.4747968,22.360585 10.68249,19.12744 C12.1344,19.42249 13.67218,19.65259 15.26477,19.8269 Z M11.96729,31 L15.97687,31 C15.9322659,34.7890233 15.5759199,38.5679498 14.91144,42.29852 C13.4480902,42.0499391 12.0025169,41.7061523 10.58393,41.26935 C11.4428458,37.911679 11.907104,34.465266 11.96729,31 L11.96729,31 Z M16.51343,44.56671 C18.3327693,44.8105592 20.1646792,44.9490768 22,44.98157 L22,57.99493 C18.43219,57.97338 15.00732,57.83837 11.96094,57.5968 C14.0713336,53.4838462 15.6033163,49.099021 16.51343,44.56671 L16.51343,44.56671 Z M25.41406,46 L26.70706,44.707 C27.0933426,44.3158083 27.091348,43.686142 26.7025949,43.2974053 C26.3138417,42.9086686 25.6841753,42.9067008 25.293,43.293 L24,44.58594 L24,32.41406 L25.293,33.70706 C25.6841917,34.0933426 26.313858,34.091348 26.7025947,33.7025949 C27.0913314,33.3138417 27.0932992,32.6841753 26.707,32.293 L25.41406,31 L29,31 L29,46 L25.41406,46 Z M31,31 L34.58594,31 L33.29294,32.293 C33.037697,32.5450613 32.9370407,32.9145398 33.029166,33.2612339 C33.1212913,33.607928 33.3920793,33.8787045 33.7387773,33.9708151 C34.0854753,34.0629256 34.4549495,33.9622537 34.707,33.707 L36,32.41406 L36,44.58594 L34.707,43.29294 C34.3158083,42.9066574 33.686142,42.908652 33.2974053,43.2974051 C32.9086686,43.6861583 32.9067008,44.3158247 33.293,44.707 L34.58594,46 L31,46 L31,31 Z M42.02319,31 C42.0681624,34.889777 42.4321968,38.7693074 43.11163,42.59955 C41.4162465,42.8224626 39.7096838,42.9500033 38,42.98157 L38,31 L42.02319,31 Z M42.019,29 L38,29 L38,20.23517 C39.5914933,20.2130167 41.15556,20.1378833 42.6922,20.00977 C42.2820002,22.9896976 42.0571679,25.9922142 42.019,29 L42.019,29 Z M38,44.98157 C39.8353714,44.9492027 41.6673311,44.8106376 43.48669,44.56657 C44.3967212,49.098842 45.9286235,53.4836379 48.03894,57.59657 C44.99145,57.83839 41.56714,57.97334 38,57.99489 L38,44.98157 Z M45.08856,42.29822 C44.4240653,38.5677528 44.0677192,34.7889247 44.02313,31 L48.03277,31 C48.0928571,34.4652652 48.5570726,37.9116846 49.416,41.26935 C47.9974269,41.7060401 46.5518777,42.0497265 45.08856,42.29822 Z M48.03351,29 L44.019,29 C44.0577697,25.9300274 44.2970492,22.8658664 44.73531,19.82709 C46.32955,19.65235 47.86684,19.42224 49.31759,19.12738 C48.5252031,22.3605324 48.0945339,25.671723 48.03351,29 Z M49.90222,16.94855 C48.3093901,17.3091117 46.6986805,17.5855577 45.07678,17.77674 C45.6765309,14.3047235 46.610941,10.89891 47.86694,7.60694 C50.2324063,7.44706856 52.5878695,7.16334618 54.92364,6.75694 C52.6772324,9.84072314 50.9786083,13.2882968 49.90222,16.94855 L49.90222,16.94855 Z M43.00647,17.98108 C41.37488,18.12756 39.69989,18.21076 38,18.23517 L38,7.992 C40.69263,7.97607 43.26514,7.89593 45.683,7.75286 C44.4803183,11.0733683 43.5843968,14.4970853 43.00647,17.98108 L43.00647,17.98108 Z M57.38824,56.06976 C55.0554818,56.7850591 52.6483722,57.2304133 50.21411,57.39709 C47.986915,53.2794001 46.3867676,48.8523545 45.46655,44.26226 C46.9829546,44.0030509 48.4812624,43.6472872 49.95233,43.19714 C51.2820405,47.8556478 53.6957903,52.133154 56.99609,55.67968 C57.12073,55.81061 57.256,55.94 57.38824,56.06976 Z M57.38806,3.93018 C57.31793,3.99897 57.24792,4.06781 57.18054,4.13642 C53.8816718,5.02658833 50.4922493,5.53860655 47.07764,5.6626 C44.2735,5.8656 41.21777,5.97266 38,5.992 L38,2.00507 C42.17523,2.03028 46.15643,2.21094 49.563,2.53516 C52.2170314,2.69171903 54.8434326,3.15994319 57.38806,3.93018 L57.38806,3.93018 Z M34.58594,14 L33.29294,15.293 C33.037697,15.5450613 32.9370407,15.9145398 33.029166,16.2612339 C33.1212913,16.607928 33.3920793,16.8787045 33.7387773,16.9708151 C34.0854753,17.0629256 34.4549495,16.9622537 34.707,16.707 L36,15.41406 L36,27.58594 L34.707,26.29294 C34.3158083,25.9066574 33.686142,25.908652 33.2974053,26.2974051 C32.9086686,26.6861583 32.9067008,27.3158247 33.293,27.707 L34.58594,29 L31,29 L31,14 L34.58594,14 Z M29,14 L29,29 L25.41406,29 L26.70706,27.707 C27.0933426,27.3158083 27.091348,26.686142 26.7025949,26.2974053 C26.3138417,25.9086686 25.6841753,25.9067008 25.293,26.293 L24,27.58594 L24,15.41406 L25.293,16.70706 C25.6841917,17.0933426 26.313858,17.091348 26.7025947,16.7025949 C27.0913314,16.3138417 27.0932992,15.6841753 26.707,15.293 L25.41406,14 L29,14 Z M10.43457,2.53564 C13.84338,2.21094 17.82477,2.03027 22,2.00507 L22,5.992 C18.78217,5.97265 15.7262,5.8656 12.91943,5.66259 C9.50558805,5.53841307 6.11694789,5.02633507 2.81885,4.13623 C2.75122,4.0675 2.68158,3.99878 2.61176,3.93023 C5.15561867,3.16006472 7.78128358,2.69198151 10.43457,2.53564 L10.43457,2.53564 Z M10.04773,43.1972 C11.5187549,43.6475085 13.0170464,44.0033766 14.53345,44.26263 C13.6131721,48.8526676 12.0129849,53.2796508 9.78577,57.39728 C7.35162024,57.2304145 4.94462692,56.7850229 2.61194,56.06983 C2.74094,55.9433 2.87378,55.81641 2.99365,55.69044 C6.29875708,52.1416299 8.7161251,47.8603121 10.04773,43.1972 Z" id="Shape"/></g></g></svg>