<?xml version="1.0" ?><svg class="appbits-icons" height="24" viewBox="0 0 24 24" width="24" xmlns="http://www.w3.org/2000/svg" xmlns:xlink="http://www.w3.org/1999/xlink"><defs><rect height="7" id="graphic-scale-a" width="7" x=".5" y=".5"/></defs><g fill="none" fill-rule="evenodd"><rect height="24" width="24"/><g transform="translate(1 1)"><path class="appbits-icons-fill" d="M19.8746534,0.146546609 C19.9651356,0.237028813 20.0211,0.362028813 20.0211,0.5001 L20.0211,4.1571 C20.0211,4.43324237 19.7972424,4.6571 19.5211,4.6571 C19.2449576,4.6571 19.0211,4.43324237 19.0211,4.1571 L19.0211,1.0001 L15.8641,1.0001 C15.5879576,1.0001 15.3641,0.776242375 15.3641,0.5001 C15.3641,0.223957625 15.5879576,0.0001 15.8641,0.0001 L19.5211,0.0001 C19.6591712,0.0001 19.7841712,0.0560644063 19.8746534,0.146546609 Z M0.146046609,19.8741534 C0.0555644063,19.7836712 -0.0004,19.6586712 -0.0004,19.5206 L-0.0004,15.8636 C-0.0004,15.5874576 0.223457625,15.3636 0.4996,15.3636 C0.775742375,15.3636 0.9996,15.5874576 0.9996,15.8636 L0.9996,19.0206 L4.1566,19.0206 C4.43274237,19.0206 4.6566,19.2444576 4.6566,19.5206 C4.6566,19.7967424 4.43274237,20.0206 4.1566,20.0206 L0.4996,20.0206 C0.361528813,20.0206 0.236528813,19.9646356 0.146046609,19.8741534 Z M0.146546609,0.146346609 C0.237028813,0.0558644063 0.362028813,-0.0001 0.5001,-0.0001 L4.1571,-0.0001 C4.43324237,-0.0001 4.6571,0.223757625 4.6571,0.4999 C4.6571,0.776042375 4.43324237,0.9999 4.1571,0.9999 L1.0001,0.9999 L1.0001,4.1569 C1.0001,4.43304237 0.776242375,4.6569 0.5001,4.6569 C0.223957625,4.6569 0.0001,4.43304237 0.0001,4.1569 L0.0001,0.4999 C0.0001,0.361828813 0.0560644063,0.236828813 0.146546609,0.146346609 Z M19.8751534,19.8739534 C19.7846712,19.9644356 19.6596712,20.0204 19.5216,20.0204 L15.8646,20.0204 C15.5884576,20.0204 15.3646,19.7965424 15.3646,19.5204 C15.3646,19.2442576 15.5884576,19.0204 15.8646,19.0204 L19.0216,19.0204 L19.0216,15.8634 C19.0216,15.5872576 19.2454576,15.3634 19.5216,15.3634 C19.7977424,15.3634 20.0216,15.5872576 20.0216,15.8634 L20.0216,19.5204 C20.0216,19.6584712 19.9656356,19.7834712 19.8751534,19.8739534 Z M4.85355339,4.14644661 C5.04881554,4.34170876 5.04881554,4.65829124 4.85355339,4.85355339 C4.65829124,5.04881554 4.34170876,5.04881554 4.14644661,4.85355339 L2.14644661,2.85355339 C1.95118446,2.65829124 1.95118446,2.34170876 2.14644661,2.14644661 C2.34170876,1.95118446 2.65829124,1.95118446 2.85355339,2.14644661 L4.85355339,4.14644661 Z M17.8535534,17.1464466 C18.0488155,17.3417088 18.0488155,17.6582912 17.8535534,17.8535534 C17.6582912,18.0488155 17.3417088,18.0488155 17.1464466,17.8535534 L15.1464466,15.8535534 C14.9511845,15.6582912 14.9511845,15.3417088 15.1464466,15.1464466 C15.3417088,14.9511845 15.6582912,14.9511845 15.8535534,15.1464466 L17.8535534,17.1464466 Z M15.8535534,4.85355339 C15.6582912,5.04881554 15.3417088,5.04881554 15.1464466,4.85355339 C14.9511845,4.65829124 14.9511845,4.34170876 15.1464466,4.14644661 L17.1464466,2.14644661 C17.3417088,1.95118446 17.6582912,1.95118446 17.8535534,2.14644661 C18.0488155,2.34170876 18.0488155,2.65829124 17.8535534,2.85355339 L15.8535534,4.85355339 Z M2.85355339,17.8535534 C2.65829124,18.0488155 2.34170876,18.0488155 2.14644661,17.8535534 C1.95118446,17.6582912 1.95118446,17.3417088 2.14644661,17.1464466 L4.14644661,15.1464466 C4.34170876,14.9511845 4.65829124,14.9511845 4.85355339,15.1464466 C5.04881554,15.3417088 5.04881554,15.6582912 4.85355339,15.8535534 L2.85355339,17.8535534 Z" fill="#0C0E0E" fill-rule="nonzero" transform="translate(1 1)"/></g><g transform="translate(8 8)"><mask fill="#fff" id="graphic-scale-b"><use xlink:href="#graphic-scale-a"/></mask><g mask="url(#graphic-scale-b)"><path class="appbits-icons-fill" d="M0.5,3.1767767 L0.323223305,3 L3,0.323223305 L3.1767767,0.5 L0.5,3.1767767 Z M0.5,1.6767767 L0.323223305,1.5 L1.5,0.323223305 L1.6767767,0.5 L0.5,1.6767767 Z M0.5,4.6767767 L0.323223305,4.5 L4.5,0.323223305 L4.6767767,0.5 L0.5,4.6767767 Z M0.5,6.1767767 L0.323223305,6 L6,0.323223305 L6.1767767,0.5 L0.5,6.1767767 Z M0.5,7.6767767 L0.323223305,7.5 L7.57106781,0.252155493 L7.74784451,0.428932188 L0.5,7.6767767 Z M0.5,9.1767767 L0.323223305,9 L9,0.323223305 L9.1767767,0.5 L0.5,9.1767767 Z M0.5,10.6767767 L0.323223305,10.5 L10.5,0.323223305 L10.6767767,0.5 L0.5,10.6767767 Z M0.5,12.1767767 L0.323223305,12 L12,0.323223305 L12.1767767,0.5 L0.5,12.1767767 Z M0.5,13.6767767 L0.323223305,13.5 L13.5384048,0.284818494 L13.7151815,0.46159519 L0.5,13.6767767 Z M0.5,15.1767767 L0.323223305,15 L15,0.323223305 L15.1767767,0.5 L0.5,15.1767767 Z M0.5,16.6767767 L0.323223305,16.5 L16.5,0.323223305 L16.6767767,0.5 L0.5,16.6767767 Z M0.5,18.1767767 L0.323223305,18 L18,0.323223305 L18.1767767,0.5 L0.5,18.1767767 Z M0.5,19.6767767 L0.323223305,19.5 L19.6049732,0.21825013 L19.7817499,0.395026825 L0.5,19.6767767 Z M0.5,21.1767767 L0.323223305,21 L21,0.323223305 L21.1767767,0.5 L0.5,21.1767767 Z M0.5,22.6767767 L0.323223305,22.5 L22.590722,0.23250127 L22.7674987,0.409277966 L0.5,22.6767767 Z M1,23.6767767 L0.823223305,23.5 L23.5,0.823223305 L23.6767767,1 L1,23.6767767 Z M2.5,23.6767767 L2.3232233,23.5 L23.5950231,2.22820019 L23.7717998,2.40497689 L2.5,23.6767767 Z M3.99957033,23.6767762 L3.82322383,23.4995703 L23.5954528,3.82322383 L23.7717993,4.00042967 L3.99957033,23.6767762 Z M5.5,23.6767767 L5.3232233,23.5 L23.6107703,5.21245303 L23.787547,5.38922972 L5.5,23.6767767 Z M7,23.6767767 L6.8232233,23.5 L23.5,6.8232233 L23.6767767,7 L7,23.6767767 Z M8.5,23.6767767 L8.3232233,23.5 L23.5332964,8.28992693 L23.7100731,8.46670362 L8.5,23.6767767 Z M10,23.6767767 L9.8232233,23.5 L23.5,9.8232233 L23.6767767,10 L10,23.6767767 Z M11.5,23.6767767 L11.3232233,23.5 L23.6655251,11.1576982 L23.8423018,11.3344749 L11.5,23.6767767 Z M13,23.6767767 L12.8232233,23.5 L23.5,12.8232233 L23.6767767,13 L13,23.6767767 Z M14.5,23.6767767 L14.3232233,23.5 L23.5553851,14.2678382 L23.7321618,14.4446149 L14.5,23.6767767 Z M16,23.6767767 L15.8232233,23.5 L23.5,15.8232233 L23.6767767,16 L16,23.6767767 Z M17.5,23.6767767 L17.3232233,23.5 L23.5,17.3232233 L23.6767767,17.5 L17.5,23.6767767 Z M19,23.6767767 L18.8232233,23.5 L23.5,18.8232233 L23.6767767,19 L19,23.6767767 Z M20.5,23.6767767 L20.3232233,23.5 L23.5,20.3232233 L23.6767767,20.5 L20.5,23.6767767 Z M22,23.6767767 L21.8232233,23.5 L23.5,21.8232233 L23.6767767,22 L22,23.6767767 Z" fill="#000" fill-rule="nonzero" transform="translate(-8 -8)"/></g></g><path class="appbits-icons-fill" d="M9,15 L15,15 L15,9 L9,9 L9,15 Z M8.5,8 L15.5,8 C15.7761424,8 16,8.22385763 16,8.5 L16,15.5 C16,15.7761424 15.7761424,16 15.5,16 L8.5,16 C8.22385763,16 8,15.7761424 8,15.5 L8,8.5 C8,8.22385763 8.22385763,8 8.5,8 Z" fill="#020302" fill-rule="nonzero"/></g></svg>