<?xml version="1.0" encoding="utf-8"?>
<!-- Generator: Adobe Illustrator 25.2.0, SVG Export Plug-In . SVG Version: 6.00 Build 0)  -->
<svg version="1.1" id="Layer_1" xmlns="http://www.w3.org/2000/svg" xmlns:xlink="http://www.w3.org/1999/xlink" x="0px" y="0px"
	 viewBox="0 0 72.1 72.1" style="enable-background:new 0 0 72.1 72.1;" xml:space="preserve">
<style type="text/css">
	.st0{fill:none;stroke:#000000;stroke-width:3;stroke-miterlimit:10;}
</style>
<path class="st0" d="M45,69.7C24.5,69,8.4,51.7,9.2,31.1C9.8,14.7,23.6,1.9,40,2.4C53.2,2.9,63.5,14,63,27.1
	c-0.4,10.5-9.2,18.7-19.7,18.4c-8.4-0.3-15-7.4-14.7-15.8c0.2-6.7,5.9-12,12.6-11.8c5.4,0.2,9.6,4.7,9.4,10.1
	c-0.2,4.3-3.8,7.7-8.1,7.5c-3.4-0.1-6.1-3-6-6.5c0.1-2.8,2.4-4.9,5.2-4.8"/>
</svg>
