<?xml version="1.0" encoding="utf-8"?>
<!-- Generator: Adobe Illustrator 25.2.0, SVG Export Plug-In . SVG Version: 6.00 Build 0)  -->
<svg version="1.1" id="Layer_1" xmlns="http://www.w3.org/2000/svg" xmlns:xlink="http://www.w3.org/1999/xlink" x="0px" y="0px"
	 viewBox="0 0 60 60" style="enable-background:new 0 0 60 60;" xml:space="preserve">
<style type="text/css">
	.st0{fill:none;stroke:#000000;stroke-width:2;stroke-linecap:round;}
</style>
<desc></desc>
<g id="Page-1_2_">
	<g id="_x30_84.Spline_2_" transform="translate(1.000000, 1.000000)">
		<path id="Stroke-1155_2_" class="st0" d="M13,45.5"/>
		<path id="Stroke-1156_1_" class="st0" d="M7,45.2"/>
		<polygon id="Stroke-1160_2_" class="st0" points="7,49 13,49 13,43 7,43 		"/>
	</g>
</g>
<path d="M33.3,5.6c12,1.6,21.3,11.9,21.3,24.4c0,5.2-1.6,10-4.3,13.9h2v2.2c3.3-4.5,5.2-10.1,5.2-16.1C57.5,16,46.9,4.3,33.3,2.7
	V5.6z"/>
<path d="M7.4,43.9h2.3C7,40,5.4,35.2,5.4,30C5.4,17.4,15,6.9,27.3,5.6V2.6C13.4,4,2.5,15.8,2.5,30c0,5.8,1.8,11.2,4.9,15.7V43.9z"/>
<g id="Page-1_1_">
	<g id="_x30_84.Spline_1_" transform="translate(1.000000, 1.000000)">
		<path id="Stroke-1155_1_" class="st0" d="M51,45.5"/>
		<path id="Stroke-1156_2_" class="st0" d="M45,45.2"/>
		<polygon id="Stroke-1160_1_" class="st0" points="45,49 51,49 51,43 45,43 		"/>
	</g>
</g>
<g id="Page-1_3_">
	<g id="_x30_84.Spline_3_" transform="translate(1.000000, 1.000000)">
		<path id="Stroke-1155_3_" class="st0" d="M32,2.5"/>
		<path id="Stroke-1156_3_" class="st0" d="M26,2.2"/>
		<polygon id="Stroke-1160_3_" class="st0" points="26,6 32,6 32,0 26,0 		"/>
	</g>
</g>
</svg>
