<?xml version="1.0" encoding="utf-8"?>
<!-- Generator: Adobe Illustrator 25.2.0, SVG Export Plug-In . SVG Version: 6.00 Build 0)  -->
<svg version="1.1" id="Layer_1" xmlns="http://www.w3.org/2000/svg" xmlns:xlink="http://www.w3.org/1999/xlink" x="0px" y="0px"
	 viewBox="0 0 72.1 72.1" style="enable-background:new 0 0 72.1 72.1;" xml:space="preserve">
<style type="text/css">
	.st0{fill:none;stroke:#000000;stroke-width:2;stroke-linecap:round;}
</style>
<desc></desc>
<g id="Page-1_3_">
	<g id="_x30_84.Spline_3_" transform="translate(1.000000, 1.000000)">
		<path id="Stroke-1155_3_" class="st0" d="M56.8,9.3"/>
		<path id="Stroke-1156_3_" class="st0" d="M51,11"/>
		<polygon id="Stroke-1160_3_" class="st0" points="52.3,14.6 58,12.6 56,7 50.3,8.9 		"/>
	</g>
</g>
<g id="Page-1_1_">
	<g id="_x30_84.Spline_1_" transform="translate(1.000000, 1.000000)">
		<path id="Stroke-1155_1_" class="st0" d="M56.8,9.3"/>
		<path id="Stroke-1156_1_" class="st0" d="M51,11"/>
		<polygon id="Stroke-1160_1_" class="st0" points="52.3,14.6 58,12.6 56,7 50.3,8.9 		"/>
	</g>
</g>
<g id="Page-1_4_">
	<g id="_x30_84.Spline_4_" transform="translate(1.000000, 1.000000)">
		<path id="Stroke-1155_4_" class="st0" d="M20.1,58"/>
		<path id="Stroke-1156_4_" class="st0" d="M14.3,59.7"/>
		<polygon id="Stroke-1160_4_" class="st0" points="15.5,63.3 21.2,61.4 19.3,55.7 13.6,57.6 		"/>
	</g>
</g>
<g id="Page-1_2_">
	<g id="_x30_84.Spline_2_" transform="translate(1.000000, 1.000000)">
		<path id="Stroke-1155_2_" class="st0" d="M20.1,58"/>
		<path id="Stroke-1156_2_" class="st0" d="M14.3,59.7"/>
		<polygon id="Stroke-1160_2_" class="st0" points="15.5,63.3 21.2,61.4 19.3,55.7 13.6,57.6 		"/>
	</g>
</g>
<g>
	<rect x="8.8" y="18.2" transform="matrix(0.9455 -0.3256 0.3256 0.9455 -4.706 11.309)" width="45.2" height="3"/>
	<rect x="11.4" y="30.3" transform="matrix(0.9455 -0.3256 0.3256 0.9455 -13.7446 6.6012)" width="3" height="28.1"/>
	<polygon points="55.2,14.7 64.9,43 20.8,58.2 21.8,61 68.7,44.8 58,13.7 	"/>
</g>
<g id="Page-1_6_">
	<g id="_x30_84.Spline_6_" transform="translate(1.000000, 1.000000)">
		<path id="Stroke-1155_6_" class="st0" d="M9,25.8"/>
		<path id="Stroke-1156_6_" class="st0" d="M3.2,27.5"/>
		<polygon id="Stroke-1160_6_" class="st0" points="4.4,31.1 10.1,29.1 8.2,23.4 2.5,25.4 		"/>
	</g>
</g>
</svg>
