<?xml version="1.0" encoding="utf-8"?>
<!-- Generator: Adobe Illustrator 25.2.0, SVG Export Plug-In . SVG Version: 6.00 Build 0)  -->
<svg version="1.1" id="Layer_1" xmlns="http://www.w3.org/2000/svg" xmlns:xlink="http://www.w3.org/1999/xlink" x="0px" y="0px"
	 viewBox="0 0 60 60" style="enable-background:new 0 0 60 60;" xml:space="preserve">
<style type="text/css">
	.st0{fill:none;stroke:#000000;stroke-width:2;stroke-linecap:round;}
</style>
<desc></desc>
<g id="Page-1_2_">
	<g id="_x30_84.Spline_2_" transform="translate(1.000000, 1.000000)">
		<path id="Stroke-1155_2_" class="st0" d="M58,28.5"/>
		<path id="Stroke-1156_1_" class="st0" d="M52,28.2"/>
		<polygon id="Stroke-1160_2_" class="st0" points="52,32 58,32 58,26 52,26 		"/>
	</g>
</g>
<g id="Page-1_1_">
	<g id="_x30_84.Spline_1_" transform="translate(1.000000, 1.000000)">
		<path id="Stroke-1155_1_" class="st0" d="M6,28.5"/>
		<path id="Stroke-1156_2_" class="st0" d="M0,28.2"/>
		<polygon id="Stroke-1160_1_" class="st0" points="0,32 6,32 6,26 0,26 		"/>
	</g>
</g>
<g>
	<path d="M5.6,27C7.1,14.9,17.5,5.4,30,5.4c12.9,0,23.5,10,24.5,22.6h3c-1-14.3-13-25.6-27.5-25.6C15.8,2.4,4.1,13.2,2.6,27H5.6z"/>
	<path d="M30,54.6C17.5,54.6,7.1,45.1,5.6,33h-3C4.1,46.8,15.8,57.6,30,57.6c14.5,0,26.5-11.3,27.5-25.6h-3
		C53.5,44.6,42.9,54.6,30,54.6z"/>
</g>
</svg>
